<svg fill="none" xmlns="http://www.w3.org/2000/svg" viewBox="0 0 24 24"><circle cx="11.5789" cy="7.27803" r="4.77803" stroke="#22211F" stroke-width="1.5" stroke-linecap="round" stroke-linejoin="round"/><path clip-rule="evenodd" d="M4.00002 18.7016a2.21516 2.21516 0 01.21968-.9703c.45766-.9153 1.74828-1.4005 2.81922-1.6201a16.77814 16.77814 0 012.34325-.3296 25.05874 25.05874 0 014.38443 0c.7878.0553 1.5708.1654 2.3433.3296 1.0709.2196 2.3615.659 2.8192 1.6201a2.27008 2.27008 0 010 1.9497c-.4577.9611-1.7483 1.4004-2.8192 1.6109-.7715.1717-1.5548.2849-2.3433.3387-1.1872.1007-2.38.119-3.5698.0549-.27459 0-.54003 0-.81463-.0549a15.41724 15.41724 0 01-2.3341-.3387c-1.08009-.2105-2.36155-.6498-2.82837-1.6109a2.2792 2.2792 0 01-.21968-.9794z" stroke="#22211F" stroke-width="1.5" stroke-linecap="round" stroke-linejoin="round"/></svg>