<svg xmlns="http://www.w3.org/2000/svg" width="19" height="18" viewBox="0 0 19 18" fill="none"><g clip-path="url(#clip0)" stroke="#004851" stroke-linecap="round" stroke-linejoin="round"><path d="M14.278 12.938H5.594a.563.563 0 01-.553-.462L3.163 2.149a.563.563 0 00-.553-.462H1.34M5.84 15.75a1.406 1.406 0 100-2.812 1.406 1.406 0 000 2.812z"/><path d="M14.278 15.75a1.406 1.406 0 100-2.813 1.406 1.406 0 000 2.813zM3.59 4.5h12.264a.562.562 0 01.554.663l-.92 5.063a.563.563 0 01-.554.461H4.716"/></g><defs><clipPath id="clip0"><path fill="#fff" transform="translate(.778)" d="M0 0h18v18H0z"/></clipPath></defs></svg>