<svg viewBox="0 0 125 108" fill="none" xmlns="http://www.w3.org/2000/svg"><path d="M41.721 24.636v-8.22c0-.58-.205-.785-.787-.785h-2.122c-.581 0-.787.204-.787.784v4.332c0 .785 0 .785-.787.785h-7.324c-.788 0-.788 0-.788-.785v-4.332c0-.58-.205-.784-.787-.784h-2.122c-.582 0-.787.204-.787.784v4.332c0 .785 0 .785-.787.785H18.79c-.787 0-.787 0-.787-.785v-4.332c0-.58-.205-.784-.787-.784h-2.122c-.582 0-.787.204-.787.784v8.22c0 .58.205.785.787.785h25.84c.788 0 .788-.409.788-.784zM41.721 31.39v-2.355c0-.375 0-.784-.787-.784H15.128c-.582 0-.787.205-.787.784v2.354c0 .58.205.785.787.785h9.549c.787 0 .787 0 .787.784v2.354c0 .784 0 .784-.787.784h-9.55c-.581 0-.786.205-.786.785v2.353c0 .58.205.785.787.785h25.84c.787 0 .787-.375.787-.785v-2.353c0-.376 0-.785-.787-.785H29.913c-.787 0-.787 0-.787-.784v-2.354c0-.784 0-.784.787-.784h11.055c.753 0 .753-.41.753-.785zM15.128 53.56h2.122c.377 0 .787 0 .787-.784V50.39c0-.75 0-.75.788-.75h22.144c.787 0 .787-.376.787-.785V46.5c0-.375 0-.784-.787-.784H18.79c-.787 0-.787 0-.787-.785v-2.353c0-.58-.205-.785-.787-.785h-2.122c-.582 0-.787.205-.787.785v10.13c.034.853.41.853.821.853z" fill="#7FA9AE"/><path d="M107.23 53.424h2.978c.821 0 1.095-.273 1.095-1.092V16.654c0-.819-.274-1.092-1.095-1.092h-3.252c-.821 0-1.095.273-1.095 1.092v18.385c0 .273-.308.34-.445 0l-6.606-18.76c-.205-.58-.479-.717-1.095-.717h-2.91c-.82 0-1.094.273-1.094 1.092v35.678c0 .82.273 1.092 1.095 1.092h3.251c.822 0 1.096-.273 1.096-1.092V34.22c0-.273.308-.375.444 0l6.606 18.522c.137.58.513.682 1.027.682zm-22.178 0h3.251c.548 0 1.095 0 1.095-1.092V16.654c0-.819-.274-1.092-1.095-1.092h-3.251c-.822 0-1.096.273-1.096 1.092v35.678c.034 1.092.582 1.092 1.096 1.092zm-19.783 0h3.251c.548 0 1.096 0 1.096-1.092v-7.197c0-.375 0-.58.205-1.194l2.122-6.037c.103-.273.308-.205.377 0l2.875 14.701c.17.819.479.819 1.197.819h3.355c.444 0 .855-.273.718-1.126l-4.483-22.376c-.103-.477-.103-.477 0-.852l4.107-12.314c.308-1.023-.171-1.126-.582-1.126h-3.662c-.719 0-.924 0-1.198.82L70.06 30.126c-.103.375-.445.273-.445 0V16.654c0-.819-.274-1.092-1.096-1.092H65.27c-.821 0-1.095.273-1.095 1.092v35.678c.034 1.092.582 1.092 1.095 1.092zM50.518 36.028c2.806 3.07 4.757 6.174 4.757 8.869 0 1.091 0 3.718-2.704 3.718-2.43 0-2.704-2.286-2.704-4.912 0-.819-.273-1.092-1.095-1.092H45.59c-.821 0-1.095.444-1.095 1.228 0 5.833 2.259 9.721 8.043 9.721 5.408 0 8.111-3.615 8.111-8.493 0-4.741-2.875-8.8-5.989-12.211-2.806-3.07-4.757-6.038-4.757-8.766 0-1.092 0-3.718 2.703-3.718 2.43 0 2.704 2.285 2.704 4.912 0 .818.274 1.091 1.096 1.091h3.182c.822 0 1.096-.443 1.096-1.228 0-5.833-2.26-9.721-8.043-9.721-5.408 0-8.112 3.615-8.112 8.493 0 4.741 2.875 8.698 5.99 12.109zM24.266 73.618c-2.807-3.07-4.757-6.038-4.757-8.767 0-1.091 0-3.718 2.703-3.718 2.43 0 2.704 2.286 2.704 4.912 0 .819.274 1.092 1.095 1.092h3.183c.822 0 1.096-.444 1.096-1.228 0-5.833-2.26-9.722-8.043-9.722-5.408 0-8.112 3.616-8.112 8.494 0 4.741 2.875 8.698 5.99 12.109 2.806 3.07 4.757 6.174 4.757 8.868 0 1.092 0 3.718-2.704 3.718-2.43 0-2.704-2.285-2.704-4.912 0-.818-.273-1.091-1.095-1.091h-3.183c-.821 0-1.095.443-1.095 1.228 0 5.833 2.259 9.721 8.043 9.721 5.408 0 8.111-3.615 8.111-8.493 0-4.741-2.874-8.8-5.99-12.211zM49.969 93.06V57.415c0-.818-.273-1.091-1.095-1.091h-3.251c-.822 0-1.095.273-1.095 1.091v13.2c0 1.092 0 1.092-1.096 1.092h-3.251c-1.095 0-1.095 0-1.095-1.091v-13.2c0-.82-.274-1.092-1.096-1.092H34.74c-.821 0-1.095.273-1.095 1.091v35.68c0 1.09.547 1.09 1.095 1.09h3.252c.547 0 1.095 0 1.095-1.09V77.846c0-1.091 0-1.091 1.095-1.091h3.251c1.096 0 1.096 0 1.096 1.091v15.247c0 1.092.547 1.092 1.095 1.092h3.251c.548-.034 1.095-.034 1.095-1.126zm22.487.17L65.645 57.28c-.171-.819-.308-.99-1.198-.99h-2.91c-.855 0-1.026.171-1.197.99l-6.811 35.952c-.171.92.377.92.924.92h2.978c2.259-5.832.342-11.835.342-11.835 7.119 2.183 9.652 7.606 10.884 11.802l2.909.034c.513 0 1.061 0 .89-.921zM86.83 69.73c0 2.763 0 5.526-2.704 5.526h-1.609c-1.095 0-1.095 0-1.095-1.092V62.225c0-1.092 0-1.092 1.095-1.092h1.609c2.704 0 2.704 2.763 2.704 5.526v3.07zm5.407-.478v-2.114c0-8.118-2.703-10.813-8.111-10.813H77.11c-.822 0-1.096.273-1.096 1.091v35.68c0 1.09.548 1.09 1.096 1.09h3.251c.548 0 1.095 0 1.095-1.09v-11.94c0-1.09 0-1.09 1.096-1.09h1.745l2.601 13.302c.171.819.48.819 1.198.819h3.388c.445 0 .822-.273.65-1.126L89.33 78.7c1.883-1.637 2.91-4.537 2.91-9.449zm16.087 1.399c-.103-.478-.103-.478 0-.853l4.107-12.313c.308-1.024-.171-1.126-.582-1.126h-3.697c-.718 0-.924 0-1.197.819l-4.553 13.644c-.102.375-.444.272-.444 0V57.415c0-.818-.274-1.091-1.096-1.091h-3.251c-.822 0-1.095.273-1.095 1.091v35.68c0 1.09.547 1.09 1.095 1.09h3.251c.548 0 1.096 0 1.096-1.09v-7.198c0-.375 0-.58.205-1.194l2.122-6.037c.103-.273.308-.205.376 0l2.875 14.701c.172.819.48.819 1.198.819h3.354c.445 0 .856-.273.719-1.126l-4.483-22.41z" fill="#A6D6DE"/></svg>