<svg viewBox="0 0 116 93" fill="none" xmlns="http://www.w3.org/2000/svg"><path opacity=".5" d="M32.273 10.936V1.3c0-.68-.24-.92-.92-.92h-2.479c-.68 0-.92.24-.92.92v5.077c0 .92 0 .92-.92.92h-8.558c-.92 0-.92 0-.92-.92V1.301c0-.68-.24-.92-.92-.92h-2.479c-.68 0-.92.24-.92.92v5.077c0 .92 0 .92-.92.92H5.48c-.92 0-.92 0-.92-.92V1.301c0-.68-.24-.92-.92-.92H1.16c-.68 0-.92.24-.92.92v9.635c0 .68.24.919.92.919h30.194c.92 0 .92-.48.92-.92zM32.273 18.852v-2.759c0-.44 0-.92-.92-.92H1.2c-.68 0-.92.24-.92.92v2.759c0 .68.24.92.92.92h11.158c.92 0 .92 0 .92.919v2.758c0 .92 0 .92-.92.92H1.2c-.68 0-.92.24-.92.919v2.758c0 .68.24.92.92.92h30.194c.92 0 .92-.44.92-.92v-2.758c0-.44 0-.92-.92-.92H18.476c-.92 0-.92 0-.92-.92v-2.757c0-.92 0-.92.92-.92h12.918c.88 0 .88-.48.88-.92zM1.2 44.836h2.48c.44 0 .92 0 .92-.92v-2.798c0-.88 0-.88.92-.88h25.873c.92 0 .92-.44.92-.919v-2.758c0-.44 0-.92-.92-.92H5.48c-.92 0-.92 0-.92-.92v-2.758c0-.68-.24-.92-.92-.92H1.16c-.68 0-.92.24-.92.92v11.873c.04 1 .48 1 .96 1z" fill="#fff"/><path d="M108.818 44.676h3.479c.96 0 1.28-.32 1.28-1.28V1.583c0-.96-.32-1.28-1.28-1.28h-3.799c-.96 0-1.28.32-1.28 1.28v21.547c0 .32-.36.4-.52 0L98.98 1.142c-.24-.68-.56-.84-1.28-.84h-3.399c-.96 0-1.28.32-1.28 1.28v41.815c0 .96.32 1.28 1.28 1.28h3.8c.959 0 1.279-.32 1.279-1.28V22.17c0-.32.36-.44.52 0l7.718 21.707c.16.68.6.8 1.2.8zm-25.915 0h3.8c.64 0 1.28 0 1.28-1.28V1.583c0-.96-.32-1.28-1.28-1.28h-3.8c-.96 0-1.28.32-1.28 1.28v41.815c.04 1.28.68 1.28 1.28 1.28zm-23.115 0h3.8c.64 0 1.28 0 1.28-1.28v-8.434c0-.44 0-.68.24-1.4l2.479-7.075c.12-.32.36-.24.44 0l3.359 17.23c.2.96.56.96 1.4.96h3.919c.52 0 1-.32.84-1.32l-5.24-26.224c-.12-.56-.12-.56 0-1l4.8-14.431c.36-1.2-.2-1.32-.68-1.32h-4.28c-.839 0-1.079 0-1.399.96l-5.359 16.03c-.12.44-.52.32-.52 0V1.582c0-.96-.32-1.28-1.28-1.28h-3.799c-.96 0-1.28.32-1.28 1.28v41.815c.04 1.28.68 1.28 1.28 1.28zM42.552 24.288c3.28 3.598 5.559 7.236 5.559 10.394 0 1.28 0 4.357-3.16 4.357-2.839 0-3.159-2.678-3.159-5.756 0-.96-.32-1.28-1.28-1.28h-3.719c-.96 0-1.28.52-1.28 1.44 0 6.836 2.64 11.393 9.399 11.393 6.318 0 9.478-4.237 9.478-9.954 0-5.557-3.36-10.314-6.999-14.312-3.28-3.597-5.559-7.075-5.559-10.274 0-1.279 0-4.357 3.16-4.357 2.839 0 3.159 2.679 3.159 5.757 0 .96.32 1.279 1.28 1.279h3.719c.96 0 1.28-.52 1.28-1.44C54.43 4.7 51.79.144 45.032.144c-6.319 0-9.478 4.237-9.478 9.954 0 5.556 3.359 10.194 6.998 14.191zM11.877 68.342C8.598 64.744 6.32 61.266 6.32 58.068c0-1.28 0-4.357 3.159-4.357 2.84 0 3.16 2.678 3.16 5.756 0 .96.32 1.28 1.279 1.28h3.72c.959 0 1.279-.52 1.279-1.44 0-6.836-2.64-11.393-9.398-11.393-6.319 0-9.478 4.237-9.478 9.954 0 5.557 3.36 10.194 6.998 14.192 3.28 3.598 5.56 7.235 5.56 10.394 0 1.279 0 4.357-3.16 4.357-2.84 0-3.16-2.678-3.16-5.757 0-.959-.32-1.279-1.28-1.279H1.28c-.96 0-1.28.52-1.28 1.44 0 6.835 2.64 11.392 9.398 11.392 6.319 0 9.478-4.237 9.478-9.954 0-5.556-3.36-10.313-6.999-14.311zm30.034 22.786V49.353c0-.96-.32-1.279-1.28-1.279h-3.799c-.96 0-1.28.32-1.28 1.28v15.47c0 1.28 0 1.28-1.28 1.28h-3.799c-1.28 0-1.28 0-1.28-1.28v-15.47c0-.96-.32-1.28-1.279-1.28h-3.8c-.959 0-1.279.32-1.279 1.28v41.814c0 1.28.64 1.28 1.28 1.28h3.799c.64 0 1.28 0 1.28-1.28V73.3c0-1.28 0-1.28 1.28-1.28h3.799c1.28 0 1.28 0 1.28 1.28v17.87c0 1.279.64 1.279 1.28 1.279h3.798c.64-.04 1.28-.04 1.28-1.32zm26.274.2l-7.958-42.135c-.2-.96-.36-1.159-1.4-1.159h-3.399c-1 0-1.2.2-1.4 1.16L46.07 91.327c-.2 1.08.44 1.08 1.08 1.08h3.48c2.639-6.836.399-13.872.399-13.872 8.318 2.558 11.278 8.915 12.717 13.832l3.4.04c.6 0 1.24 0 1.04-1.08zm16.797-27.543c0 3.238 0 6.476-3.16 6.476h-1.88c-1.279 0-1.279 0-1.279-1.28V54.99c0-1.28 0-1.28 1.28-1.28h1.88c3.159 0 3.159 3.239 3.159 6.477v3.598zm6.318-.56v-2.479c0-9.514-3.159-12.672-9.478-12.672h-8.198c-.96 0-1.28.32-1.28 1.28v41.814c0 1.28.64 1.28 1.28 1.28h3.8c.64 0 1.28 0 1.28-1.28V77.177c0-1.28 0-1.28 1.279-1.28h2.04l3.039 15.591c.2.96.56.96 1.4.96h3.959c.52 0 .96-.32.76-1.32l-3.28-16.83c2.2-1.919 3.4-5.316 3.4-11.073zm18.796 1.639c-.12-.56-.12-.56 0-1l4.799-14.43c.36-1.2-.2-1.32-.68-1.32h-4.319c-.839 0-1.079 0-1.399.96l-5.319 15.99c-.12.44-.52.32-.52 0v-15.71c0-.96-.32-1.28-1.28-1.28h-3.799c-.96 0-1.28.32-1.28 1.28v41.814c0 1.28.64 1.28 1.28 1.28h3.799c.64 0 1.28 0 1.28-1.28v-8.435c0-.44 0-.68.24-1.399l2.479-7.076c.12-.32.36-.24.44 0l3.36 17.23c.199.96.559.96 1.399.96h3.919c.52 0 1-.32.84-1.32l-5.239-26.264z" fill="#fff"/></svg>