<svg viewBox="0 0 310 310" fill="none" xmlns="http://www.w3.org/2000/svg"><mask id="a" maskUnits="userSpaceOnUse" x="0" y="0" width="310" height="310"><circle cx="155" cy="155" r="155" fill="#C4C4C4"/></mask><g mask="url(#a)" fill="#fff"><mask id="b"><path d="M291.419 241.048c-.026-.071-.047-.141-.071-.213a5.19 5.19 0 00-.136-.386l-4.216-10.386c-8.624-21.24-17.251-42.477-25.882-63.711a378.087 378.087 0 00-2.432-5.818c-.394-.925-.788-1.863-1.182-2.813l-.181-.436.343-.276c.788-.628.768-1.565.451-3.299-.554-3.038-1.098-6.122-1.624-9.121-.327-1.852-.655-3.704-.985-5.555-.481 3.104-.857 6.237-1.222 9.296-.34 2.845-.693 5.79-1.13 8.708l-.093.56-.495-.111c-.669-.149-1.328-.29-1.98-.431-2.471-.532-4.803-1.036-7.233-1.868l-.394-.138.053-.478c1.06-9.364 2.12-18.712 3.178-28.042 2.365-20.766 4.792-42.237 7.153-63.328a26474.7 26474.7 0 013.99-35.35c2.061-18.203 4.19-37.014 6.241-55.629l-2.587-.287c-2.194-.245-4.267-.474-6.356-.694l-8.736-.907c-3.43-.354-6.859-.71-10.287-1.07l-12.831-1.36c-3.762-.404-7.524-.806-11.286-1.207-3.385-.361-6.77-.716-10.155-1.066l-8.669-.907a13025.03 13025.03 0 01-18.474-1.958l-14.688-1.565-10.169-1.081-18.824-1.998-1.858-.195a17894.17 17894.17 0 00-17.946-1.895c-1.92-.203-3.841-.401-5.763-.596-4.477-.454-9.105-.94-13.652-1.456-1.263-.143-2.085.227-2.836 1.27a28.28 28.28 0 01-1.994 2.387c-.335.374-.68.76-1.038 1.177l-.493.569-.301-.723-2.816-6.75c-2.126-5.1-4.137-9.913-6.192-14.8-1.025-2.427-2.051-4.91-3.046-7.308-1.719-4.152-3.49-8.432-5.373-12.751-.01.043-.02.086-.032.129-.219.907-.408 1.691-.662 2.45-3.253 9.689-6.573 19.533-9.784 29.054l-5.911 17.548c-6.002 17.794-12.002 35.588-18 53.383a23.953 23.953 0 001.849-2.054c1.017-1.306 2.12-1.784 3.686-1.587 4.658.56 9.403 1.048 13.99 1.52 1.672.171 3.345.345 5.018.52l6.124.642c4.363.454 8.727.913 13.092 1.379 3.96.421 7.92.846 11.877 1.274 5.123.55 10.246 1.099 15.369 1.646 3.29.347 6.636.68 9.871 1.02 3.235.34 6.626.68 9.938 1.03 4.481.474 8.96.954 13.438 1.44 4.669.503 9.34 1.003 14.013 1.5 4.303.454 8.669.907 12.907 1.34 3.607.372 7.215.75 10.823 1.134 9.921 1.038 19.748 2.079 29.216 3.093 1.673.179 3.328.383 5.081.598.822.1 1.659.204 2.52.306l.503.061-12.281 108.836.961.257c2.244.6 4.37 1.17 6.634 1.451l13.771-121.98L45.749 4.502l.18-.68c.039-.15.078-.306.117-.467.093-.37.197-.786.331-1.19l3.986-11.83c3.078-9.138 6.262-18.592 9.37-27.888.47-1.442.806-2.937 1.002-4.46.394-2.92.743-5.895 1.086-8.783.2-1.707.406-3.413.614-5.117.105-.848.247-1.699.385-2.522.063-.378.126-.757.185-1.133l.065-.413 1.145-.154.155.354c2.089 4.73 4.112 9.61 6.067 14.331 1.807 4.358 3.67 8.858 5.611 13.302l.197-.227a9.162 9.162 0 001.001-1.165c.806-1.195 1.827-1.646 3.214-1.422 1.162.189 2.364.304 3.515.418.453.045.908.088 1.361.138l5.647.603c5.828.626 11.657 1.248 17.487 1.866 3.349.354 6.699.702 10.048 1.045l9.558.995c4.143.437 8.286.878 12.427 1.322l11.3 1.202a20432.231 20432.231 0 0119.019 1.988c3.598.381 7.195.768 10.792 1.159l12.736 1.36c4.095.433 8.192.858 12.29 1.277 3.748.388 7.496.777 11.243 1.167a18320.29 18320.29 0 0128.826 3.061c1.605.173 3.229.365 4.801.551l2.168.254.417.048.024.483c.087 1.691-5.444 51.567-9.184 84.676-1.556 13.792-9.357 82.669-9.977 84.213l-.166.408-9.698-2.342 17.29-153.268-1.285-.158c-1.2-.15-2.335-.29-3.47-.41-3.968-.418-7.937-.833-11.908-1.246-3.874-.403-7.749-.808-11.625-1.215-5.79-.604-11.58-1.218-17.37-1.84L182.981-8.67l-12.413-1.32c-7.779-.824-15.557-1.645-23.334-2.464l-8.079-.848-11.148-1.172c-5.208-.55-10.414-1.105-15.618-1.662l-13.142-1.4-14.383-1.525c-1.801-.19-3.602-.377-5.401-.56-3.18-.329-6.469-.667-9.702-1.023-.973-.109-1.592.148-2.209.907a632.715 632.715 0 01-5.355 6.48c-.89 1.066-1.78 2.134-2.67 3.204a4.932 4.932 0 00-.329.47c.346.104.697.18 1.052.226 5.25.555 10.585 1.11 15.747 1.646l7.2.748c6.406.67 12.812 1.342 19.218 2.016l11.542 1.229 11.985 1.276 9.83 1.03c3.194.332 6.388.667 9.584 1.004 3.196.337 6.376.676 9.542 1.018 3.224.344 6.448.688 9.674 1.03 3.099.329 6.198.654 9.298.974 3.306.345 6.613.69 9.919 1.038 3.691.39 7.381.783 11.069 1.18a7243.946 7243.946 0 0022.31 2.358c4.421.453 8.992.938 13.487 1.416.491.065.977.17 1.456.313.226.062.461.123.703.182l.447.104-6.165 54.66-9.469 84.211-.985-.145 15.547-137.81-.281-.077a9.057 9.057 0 00-1.311-.272c-4.494-.48-9.063-.957-13.484-1.417a7228.032 7228.032 0 01-22.314-2.358 13704 13704 0 00-11.067-1.18c-3.304-.348-6.609-.694-9.917-1.038l-9.3-.975c-3.226-.34-6.451-.683-9.676-1.031-3.177-.34-6.357-.679-9.538-1.016-3.182-.337-6.377-.672-9.586-1.004A7584.526 7584.526 0 01113.9-2.553l-11.542-1.229c-6.406-.677-12.812-1.349-19.219-2.016l-7.197-.748c-5.162-.537-10.5-1.09-15.749-1.646a7.299 7.299 0 01-1.223-.274c-.211-.06-.436-.123-.682-.184l-.76-.186.472-.712c.12-.179.221-.342.314-.49.164-.27.343-.528.535-.772a531.384 531.384 0 012.672-3.209c1.762-2.108 3.584-4.29 5.344-6.466.821-1.018 1.755-1.408 3.024-1.267 3.23.356 6.516.696 9.696 1.022l5.4.56c4.794.507 9.588 1.015 14.384 1.526l13.144 1.401 15.616 1.66c3.714.394 7.429.785 11.146 1.172l8.079.848 23.336 2.465c4.138.436 8.275.876 12.413 1.32l13.745 1.461c5.789.617 11.578 1.232 17.368 1.844l11.625 1.213c3.97.412 7.94.827 11.911 1.244 1.14.12 2.279.264 3.485.413l1.783.227.503.059-17.304 153.392 7.957 1.921c.731-4.378 4.598-37.249 9.851-83.774 4.908-43.484 8.776-79.003 9.117-83.662l-1.703-.202c-1.576-.186-3.19-.377-4.791-.549a18045.08 18045.08 0 00-28.824-3.06c-3.746-.395-7.493-.784-11.241-1.168-4.097-.422-8.194-.848-12.292-1.277l-12.739-1.36a4411.597 4411.597 0 00-20.94-2.22l-8.866-.925-11.3-1.201c-4.142-.443-8.283-.884-12.425-1.322-3.187-.336-6.373-.668-9.558-.996-3.349-.344-6.699-.693-10.048-1.045a9639.674 9639.674 0 01-17.49-1.866l-5.646-.605-1.353-.136c-1.17-.114-2.38-.227-3.569-.424-1.044-.168-1.708.12-2.297.993-.34.472-.713.91-1.117 1.308-.213.227-.432.454-.67.719l-.48.533-.302-.68c-2.053-4.676-4.018-9.417-5.911-14.003-1.846-4.455-3.754-9.07-5.714-13.531-.016.09-.03.183-.045.276a58.474 58.474 0 00-.377 2.467c-.21 1.7-.412 3.401-.615 5.108-.342 2.889-.695 5.873-1.087 8.804a25.615 25.615 0 01-1.056 4.696A12441.73 12441.73 0 0151.317-9.22a48924.24 48924.24 0 00-3.984 11.83c-.1.298-.181.608-.258.908l175.247 18.496-.065.583-13.96 123.639-.47-.048c-2.509-.263-4.808-.879-7.239-1.53l-1.395-.372-.438-.113 2.144-19.005 10.117-89.725-2.019-.247c-1.75-.227-3.401-.42-5.068-.596-9.457-1.014-19.295-2.054-29.214-3.095-3.607-.376-7.213-.75-10.82-1.12-4.233-.435-8.609-.887-12.91-1.34-4.673-.494-9.346-.995-14.017-1.501-4.478-.484-8.956-.964-13.435-1.44-3.31-.351-6.68-.696-9.936-1.03-3.257-.332-6.581-.68-9.874-1.02a5311.24 5311.24 0 01-15.368-1.645c-3.96-.427-7.918-.851-11.875-1.275-4.362-.465-8.726-.925-13.09-1.378l-6.127-.642c-1.67-.177-3.343-.35-5.016-.521-4.59-.472-9.34-.962-14.005-1.522-1.25-.15-2.047.193-2.849 1.225a28.777 28.777 0 01-2.229 2.45c-.342.35-.699.713-1.052 1.087l-1.343 1.428.54-2.01c.045-.173.088-.348.133-.525.097-.392.198-.798.334-1.197C37.81 1.62 43.849-16.293 49.89-34.204l5.91-17.549c3.212-9.523 6.532-19.363 9.783-29.05.238-.708.422-1.468.635-2.347.112-.47.234-.977.38-1.537l.352-1.36.56 1.269c2.1 4.761 4.057 9.497 5.95 14.057a838.38 838.38 0 003.04 7.303c2.063 4.888 4.071 9.706 6.197 14.805l2.514 6.031.56-.628a27.255 27.255 0 001.92-2.297c.962-1.337 2.1-1.854 3.691-1.673 4.544.515 9.17.99 13.643 1.453 1.923.198 3.844.397 5.765.597 5.984.627 11.967 1.259 17.947 1.895l1.858.195 18.825 2.025 10.168 1.081 14.689 1.565 18.474 1.959 8.669.907c3.388.353 6.773.709 10.157 1.065 3.762.4 7.524.801 11.286 1.206l12.829 1.36c3.428.363 6.856.72 10.285 1.07l8.74.908c2.09.226 4.165.453 6.36.694l3.092.342.504.057-.063.58c-2.069 18.805-4.223 37.82-6.305 56.21-1.312 11.588-2.668 23.58-3.988 35.352a51740.094 51740.094 0 01-7.152 63.327c-1.041 9.174-2.082 18.361-3.123 27.561 2.238.737 4.425 1.209 6.73 1.705l1.492.324c.394-2.72.723-5.441 1.042-8.098.461-3.855.94-7.861 1.634-11.79l.394-2.286.553 2.243c.051.208.107.417.162.623.122.454.248.937.337 1.426.357 1.991.71 3.983 1.058 5.977.524 2.988 1.068 6.078 1.621 9.112.221 1.202.542 2.966-.52 4.151l1.019 2.411c.847 2.002 1.649 3.892 2.437 5.836 8.633 21.235 17.26 42.472 25.882 63.71l4.217 10.386c.065.161.116.318.165.47l.065.195-.912.424z"/></mask><path d="M291.419 241.048c-.026-.071-.047-.141-.071-.213a5.19 5.19 0 00-.136-.386l-4.216-10.386c-8.624-21.24-17.251-42.477-25.882-63.711a378.087 378.087 0 00-2.432-5.818c-.394-.925-.788-1.863-1.182-2.813l-.181-.436.343-.276c.788-.628.768-1.565.451-3.299-.554-3.038-1.098-6.122-1.624-9.121-.327-1.852-.655-3.704-.985-5.555-.481 3.104-.857 6.237-1.222 9.296-.34 2.845-.693 5.79-1.13 8.708l-.093.56-.495-.111c-.669-.149-1.328-.29-1.98-.431-2.471-.532-4.803-1.036-7.233-1.868l-.394-.138.053-.478c1.06-9.364 2.12-18.712 3.178-28.042 2.365-20.766 4.792-42.237 7.153-63.328a26474.7 26474.7 0 013.99-35.35c2.061-18.203 4.19-37.014 6.241-55.629l-2.587-.287c-2.194-.245-4.267-.474-6.356-.694l-8.736-.907c-3.43-.354-6.859-.71-10.287-1.07l-12.831-1.36c-3.762-.404-7.524-.806-11.286-1.207-3.385-.361-6.77-.716-10.155-1.066l-8.669-.907a13025.03 13025.03 0 01-18.474-1.958l-14.688-1.565-10.169-1.081-18.824-1.998-1.858-.195a17894.17 17894.17 0 00-17.946-1.895c-1.92-.203-3.841-.401-5.763-.596-4.477-.454-9.105-.94-13.652-1.456-1.263-.143-2.085.227-2.836 1.27a28.28 28.28 0 01-1.994 2.387c-.335.374-.68.76-1.038 1.177l-.493.569-.301-.723-2.816-6.75c-2.126-5.1-4.137-9.913-6.192-14.8-1.025-2.427-2.051-4.91-3.046-7.308-1.719-4.152-3.49-8.432-5.373-12.751-.01.043-.02.086-.032.129-.219.907-.408 1.691-.662 2.45-3.253 9.689-6.573 19.533-9.784 29.054l-5.911 17.548c-6.002 17.794-12.002 35.588-18 53.383a23.953 23.953 0 001.849-2.054c1.017-1.306 2.12-1.784 3.686-1.587 4.658.56 9.403 1.048 13.99 1.52 1.672.171 3.345.345 5.018.52l6.124.642c4.363.454 8.727.913 13.092 1.379 3.96.421 7.92.846 11.877 1.274 5.123.55 10.246 1.099 15.369 1.646 3.29.347 6.636.68 9.871 1.02 3.235.34 6.626.68 9.938 1.03 4.481.474 8.96.954 13.438 1.44 4.669.503 9.34 1.003 14.013 1.5 4.303.454 8.669.907 12.907 1.34 3.607.372 7.215.75 10.823 1.134 9.921 1.038 19.748 2.079 29.216 3.093 1.673.179 3.328.383 5.081.598.822.1 1.659.204 2.52.306l.503.061-12.281 108.836.961.257c2.244.6 4.37 1.17 6.634 1.451l13.771-121.98L45.749 4.502l.18-.68c.039-.15.078-.306.117-.467.093-.37.197-.786.331-1.19l3.986-11.83c3.078-9.138 6.262-18.592 9.37-27.888.47-1.442.806-2.937 1.002-4.46.394-2.92.743-5.895 1.086-8.783.2-1.707.406-3.413.614-5.117.105-.848.247-1.699.385-2.522.063-.378.126-.757.185-1.133l.065-.413 1.145-.154.155.354c2.089 4.73 4.112 9.61 6.067 14.331 1.807 4.358 3.67 8.858 5.611 13.302l.197-.227a9.162 9.162 0 001.001-1.165c.806-1.195 1.827-1.646 3.214-1.422 1.162.189 2.364.304 3.515.418.453.045.908.088 1.361.138l5.647.603c5.828.626 11.657 1.248 17.487 1.866 3.349.354 6.699.702 10.048 1.045l9.558.995c4.143.437 8.286.878 12.427 1.322l11.3 1.202a20432.231 20432.231 0 0119.019 1.988c3.598.381 7.195.768 10.792 1.159l12.736 1.36c4.095.433 8.192.858 12.29 1.277 3.748.388 7.496.777 11.243 1.167a18320.29 18320.29 0 0128.826 3.061c1.605.173 3.229.365 4.801.551l2.168.254.417.048.024.483c.087 1.691-5.444 51.567-9.184 84.676-1.556 13.792-9.357 82.669-9.977 84.213l-.166.408-9.698-2.342 17.29-153.268-1.285-.158c-1.2-.15-2.335-.29-3.47-.41-3.968-.418-7.937-.833-11.908-1.246-3.874-.403-7.749-.808-11.625-1.215-5.79-.604-11.58-1.218-17.37-1.84L182.981-8.67l-12.413-1.32c-7.779-.824-15.557-1.645-23.334-2.464l-8.079-.848-11.148-1.172c-5.208-.55-10.414-1.105-15.618-1.662l-13.142-1.4-14.383-1.525c-1.801-.19-3.602-.377-5.401-.56-3.18-.329-6.469-.667-9.702-1.023-.973-.109-1.592.148-2.209.907a632.715 632.715 0 01-5.355 6.48c-.89 1.066-1.78 2.134-2.67 3.204a4.932 4.932 0 00-.329.47c.346.104.697.18 1.052.226 5.25.555 10.585 1.11 15.747 1.646l7.2.748c6.406.67 12.812 1.342 19.218 2.016l11.542 1.229 11.985 1.276 9.83 1.03c3.194.332 6.388.667 9.584 1.004 3.196.337 6.376.676 9.542 1.018 3.224.344 6.448.688 9.674 1.03 3.099.329 6.198.654 9.298.974 3.306.345 6.613.69 9.919 1.038 3.691.39 7.381.783 11.069 1.18a7243.946 7243.946 0 0022.31 2.358c4.421.453 8.992.938 13.487 1.416.491.065.977.17 1.456.313.226.062.461.123.703.182l.447.104-6.165 54.66-9.469 84.211-.985-.145 15.547-137.81-.281-.077a9.057 9.057 0 00-1.311-.272c-4.494-.48-9.063-.957-13.484-1.417a7228.032 7228.032 0 01-22.314-2.358 13704 13704 0 00-11.067-1.18c-3.304-.348-6.609-.694-9.917-1.038l-9.3-.975c-3.226-.34-6.451-.683-9.676-1.031-3.177-.34-6.357-.679-9.538-1.016-3.182-.337-6.377-.672-9.586-1.004A7584.526 7584.526 0 01113.9-2.553l-11.542-1.229c-6.406-.677-12.812-1.349-19.219-2.016l-7.197-.748c-5.162-.537-10.5-1.09-15.749-1.646a7.299 7.299 0 01-1.223-.274c-.211-.06-.436-.123-.682-.184l-.76-.186.472-.712c.12-.179.221-.342.314-.49.164-.27.343-.528.535-.772a531.384 531.384 0 012.672-3.209c1.762-2.108 3.584-4.29 5.344-6.466.821-1.018 1.755-1.408 3.024-1.267 3.23.356 6.516.696 9.696 1.022l5.4.56c4.794.507 9.588 1.015 14.384 1.526l13.144 1.401 15.616 1.66c3.714.394 7.429.785 11.146 1.172l8.079.848 23.336 2.465c4.138.436 8.275.876 12.413 1.32l13.745 1.461c5.789.617 11.578 1.232 17.368 1.844l11.625 1.213c3.97.412 7.94.827 11.911 1.244 1.14.12 2.279.264 3.485.413l1.783.227.503.059-17.304 153.392 7.957 1.921c.731-4.378 4.598-37.249 9.851-83.774 4.908-43.484 8.776-79.003 9.117-83.662l-1.703-.202c-1.576-.186-3.19-.377-4.791-.549a18045.08 18045.08 0 00-28.824-3.06c-3.746-.395-7.493-.784-11.241-1.168-4.097-.422-8.194-.848-12.292-1.277l-12.739-1.36a4411.597 4411.597 0 00-20.94-2.22l-8.866-.925-11.3-1.201c-4.142-.443-8.283-.884-12.425-1.322-3.187-.336-6.373-.668-9.558-.996-3.349-.344-6.699-.693-10.048-1.045a9639.674 9639.674 0 01-17.49-1.866l-5.646-.605-1.353-.136c-1.17-.114-2.38-.227-3.569-.424-1.044-.168-1.708.12-2.297.993-.34.472-.713.91-1.117 1.308-.213.227-.432.454-.67.719l-.48.533-.302-.68c-2.053-4.676-4.018-9.417-5.911-14.003-1.846-4.455-3.754-9.07-5.714-13.531-.016.09-.03.183-.045.276a58.474 58.474 0 00-.377 2.467c-.21 1.7-.412 3.401-.615 5.108-.342 2.889-.695 5.873-1.087 8.804a25.615 25.615 0 01-1.056 4.696A12441.73 12441.73 0 0151.317-9.22a48924.24 48924.24 0 00-3.984 11.83c-.1.298-.181.608-.258.908l175.247 18.496-.065.583-13.96 123.639-.47-.048c-2.509-.263-4.808-.879-7.239-1.53l-1.395-.372-.438-.113 2.144-19.005 10.117-89.725-2.019-.247c-1.75-.227-3.401-.42-5.068-.596-9.457-1.014-19.295-2.054-29.214-3.095-3.607-.376-7.213-.75-10.82-1.12-4.233-.435-8.609-.887-12.91-1.34-4.673-.494-9.346-.995-14.017-1.501-4.478-.484-8.956-.964-13.435-1.44-3.31-.351-6.68-.696-9.936-1.03-3.257-.332-6.581-.68-9.874-1.02a5311.24 5311.24 0 01-15.368-1.645c-3.96-.427-7.918-.851-11.875-1.275-4.362-.465-8.726-.925-13.09-1.378l-6.127-.642c-1.67-.177-3.343-.35-5.016-.521-4.59-.472-9.34-.962-14.005-1.522-1.25-.15-2.047.193-2.849 1.225a28.777 28.777 0 01-2.229 2.45c-.342.35-.699.713-1.052 1.087l-1.343 1.428.54-2.01c.045-.173.088-.348.133-.525.097-.392.198-.798.334-1.197C37.81 1.62 43.849-16.293 49.89-34.204l5.91-17.549c3.212-9.523 6.532-19.363 9.783-29.05.238-.708.422-1.468.635-2.347.112-.47.234-.977.38-1.537l.352-1.36.56 1.269c2.1 4.761 4.057 9.497 5.95 14.057a838.38 838.38 0 003.04 7.303c2.063 4.888 4.071 9.706 6.197 14.805l2.514 6.031.56-.628a27.255 27.255 0 001.92-2.297c.962-1.337 2.1-1.854 3.691-1.673 4.544.515 9.17.99 13.643 1.453 1.923.198 3.844.397 5.765.597 5.984.627 11.967 1.259 17.947 1.895l1.858.195 18.825 2.025 10.168 1.081 14.689 1.565 18.474 1.959 8.669.907c3.388.353 6.773.709 10.157 1.065 3.762.4 7.524.801 11.286 1.206l12.829 1.36c3.428.363 6.856.72 10.285 1.07l8.74.908c2.09.226 4.165.453 6.36.694l3.092.342.504.057-.063.58c-2.069 18.805-4.223 37.82-6.305 56.21-1.312 11.588-2.668 23.58-3.988 35.352a51740.094 51740.094 0 01-7.152 63.327c-1.041 9.174-2.082 18.361-3.123 27.561 2.238.737 4.425 1.209 6.73 1.705l1.492.324c.394-2.72.723-5.441 1.042-8.098.461-3.855.94-7.861 1.634-11.79l.394-2.286.553 2.243c.051.208.107.417.162.623.122.454.248.937.337 1.426.357 1.991.71 3.983 1.058 5.977.524 2.988 1.068 6.078 1.621 9.112.221 1.202.542 2.966-.52 4.151l1.019 2.411c.847 2.002 1.649 3.892 2.437 5.836 8.633 21.235 17.26 42.472 25.882 63.71l4.217 10.386c.065.161.116.318.165.47l.065.195-.912.424z" stroke="#fff" stroke-width="2" mask="url(#b)"/><mask id="c"><path d="M280.083 303.732c-.071-.123-.925-1.481-2.22-3.536-30.173-47.912-82.323-132.071-92.601-157.383a11.79 11.79 0 01-.411-1.306c-.067-.246-.14-.516-.23-.817l-.266-.905 5.279 1 10.406-92.182-151.226-15.98c.161.281.353.537.572.76l14.091 14.85c9.118 9.611 18.546 19.545 27.813 29.326.644.703 1.453 1.175 2.327 1.358 2.129.482 4.285.998 6.37 1.5 2.328.557 4.735 1.132 7.107 1.664 1.529.342 2.438 1.177 2.951 2.716.331.95.703 1.879 1.116 2.784.124.285.25.57.374.86l3.701-1.385.033.738c.014.328.03.62.043.89.028.525.052.977.054 1.432 0 .935.011 1.87.019 2.807.024 2.49.049 5.081-.047 7.625-.061 1.65.38 2.78 1.574 4.029a20289.139 20289.139 0 0133.054 34.764l14.112 14.864a9.56 9.56 0 001.023.883c.197.154.394.314.612.491l.417.346-.32.464c-.309.453-.577.863-.837 1.263-.457.76-.975 1.47-1.546 2.121-1.761 1.879-1.967 3.52-.683 5.493.2.333.36.696.475 1.078.055.158.106.308.163.452l4.236 10.451c8.106 19.943 16.487 40.565 24.723 60.852.204.531.38 1.076.525 1.632.067.244.136.486.209.729l-.927.375a36.804 36.804 0 01-.218-.758 14.635 14.635 0 00-.48-1.5c-8.236-20.285-16.617-40.907-24.722-60.85l-4.251-10.439c-.069-.17-.128-.344-.187-.512a3.777 3.777 0 00-.348-.817c-1.586-2.442-1.325-4.733.802-6.998a13.903 13.903 0 001.425-1.967c.173-.265.348-.537.537-.82l-.173-.136a10.262 10.262 0 01-1.132-.982l-14.114-14.864a17333.594 17333.594 0 00-33.054-34.762c-1.401-1.466-1.967-2.942-1.89-4.916.094-2.512.068-5.081.045-7.564 0-.937-.018-1.876-.02-2.814 0-.423-.024-.84-.051-1.358 0-.054 0-.108-.01-.165l-3.299 1.236-.185-.453c-.183-.436-.37-.864-.553-1.285-.43-.94-.817-1.904-1.159-2.89-.394-1.173-1.005-1.737-2.21-2.004-2.378-.53-4.79-1.109-7.12-1.668-2.083-.5-4.238-1.016-6.359-1.496-1.052-.227-2.025-.798-2.803-1.643a42812.22 42812.22 0 00-27.813-29.325L48.717 34.232a4.696 4.696 0 01-1.18-2.064l-.242-.826L201.15 47.6l-10.667 94.509-4.677-.887c.095.381.212.755.35 1.118 7.593 18.696 40.446 74.523 92.507 157.197 2.149 3.411 2.235 3.554 2.271 3.622l-.866.541.433-.27-.419.302zM176.755 140.957l-85.422-90.01.069-.325c.03-.136.047-.227.059-.304a.987.987 0 01.153-.436.74.74 0 01.516-.304l.169-.016c.23-.031.461-.039.692-.022 30.288 3.21 60.575 6.423 91.205 9.674l6.78.72-9.033 79.993-.287.116c-.801.317-1.574.149-2.255 0-1.033-.227-1.651-.31-2.314.511l-.332.403zM92.531 50.662l84.194 88.727c.958-.881 1.968-.663 2.859-.471.478.141.975.183 1.466.124l8.818-78.104-5.763-.61c-30.629-3.251-60.917-6.465-91.204-9.675a2.06 2.06 0 00-.37.01z"/></mask><path d="M280.083 303.732c-.071-.123-.925-1.481-2.22-3.536-30.173-47.912-82.323-132.071-92.601-157.383a11.79 11.79 0 01-.411-1.306c-.067-.246-.14-.516-.23-.817l-.266-.905 5.279 1 10.406-92.182-151.226-15.98c.161.281.353.537.572.76l14.091 14.85c9.118 9.611 18.546 19.545 27.813 29.326.644.703 1.453 1.175 2.327 1.358 2.129.482 4.285.998 6.37 1.5 2.328.557 4.735 1.132 7.107 1.664 1.529.342 2.438 1.177 2.951 2.716.331.95.703 1.879 1.116 2.784.124.285.25.57.374.86l3.701-1.385.033.738c.014.328.03.62.043.89.028.525.052.977.054 1.432 0 .935.011 1.87.019 2.807.024 2.49.049 5.081-.047 7.625-.061 1.65.38 2.78 1.574 4.029a20289.139 20289.139 0 0133.054 34.764l14.112 14.864a9.56 9.56 0 001.023.883c.197.154.394.314.612.491l.417.346-.32.464c-.309.453-.577.863-.837 1.263-.457.76-.975 1.47-1.546 2.121-1.761 1.879-1.967 3.52-.683 5.493.2.333.36.696.475 1.078.055.158.106.308.163.452l4.236 10.451c8.106 19.943 16.487 40.565 24.723 60.852.204.531.38 1.076.525 1.632.067.244.136.486.209.729l-.927.375a36.804 36.804 0 01-.218-.758 14.635 14.635 0 00-.48-1.5c-8.236-20.285-16.617-40.907-24.722-60.85l-4.251-10.439c-.069-.17-.128-.344-.187-.512a3.777 3.777 0 00-.348-.817c-1.586-2.442-1.325-4.733.802-6.998a13.903 13.903 0 001.425-1.967c.173-.265.348-.537.537-.82l-.173-.136a10.262 10.262 0 01-1.132-.982l-14.114-14.864a17333.594 17333.594 0 00-33.054-34.762c-1.401-1.466-1.967-2.942-1.89-4.916.094-2.512.068-5.081.045-7.564 0-.937-.018-1.876-.02-2.814 0-.423-.024-.84-.051-1.358 0-.054 0-.108-.01-.165l-3.299 1.236-.185-.453c-.183-.436-.37-.864-.553-1.285-.43-.94-.817-1.904-1.159-2.89-.394-1.173-1.005-1.737-2.21-2.004-2.378-.53-4.79-1.109-7.12-1.668-2.083-.5-4.238-1.016-6.359-1.496-1.052-.227-2.025-.798-2.803-1.643a42812.22 42812.22 0 00-27.813-29.325L48.717 34.232a4.696 4.696 0 01-1.18-2.064l-.242-.826L201.15 47.6l-10.667 94.509-4.677-.887c.095.381.212.755.35 1.118 7.593 18.696 40.446 74.523 92.507 157.197 2.149 3.411 2.235 3.554 2.271 3.622l-.866.541.433-.27-.419.302zM176.755 140.957l-85.422-90.01.069-.325c.03-.136.047-.227.059-.304a.987.987 0 01.153-.436.74.74 0 01.516-.304l.169-.016c.23-.031.461-.039.692-.022 30.288 3.21 60.575 6.423 91.205 9.674l6.78.72-9.033 79.993-.287.116c-.801.317-1.574.149-2.255 0-1.033-.227-1.651-.31-2.314.511l-.332.403zM92.531 50.662l84.194 88.727c.958-.881 1.968-.663 2.859-.471.478.141.975.183 1.466.124l8.818-78.104-5.763-.61c-30.629-3.251-60.917-6.465-91.204-9.675a2.06 2.06 0 00-.37.01z" stroke="#fff" stroke-width="2" mask="url(#c)"/><mask id="d"><path d="M186.509 353.309l-.374-1.049 15.45-7.281c-2.612-6.412-28.893-70.069-39.068-94.71l-4.306-10.419a45594.653 45594.653 0 00-18.568-45.725 5.084 5.084 0 00-.408-.739l-9.517 13.155-10.647 14.798c.403 1.001.805 1.993 1.206 2.974a596.164 596.164 0 013.263 8.14c.443 1.132 2.506 3.042 3.543 3.789l-.526.958c-.984-.709-3.32-2.774-3.908-4.283-1.053-2.702-2.124-5.336-3.257-8.124l-1.338-3.3-.132-.326 10.295-14.309-.268-.127c-.504-.24-.939-.453-1.366-.627l-3.3-1.359c-2.26-.927-4.596-1.882-6.888-2.877a8.509 8.509 0 01-1.772-1.159c-.24-.186-.488-.376-.755-.573l-1.087.541c-1.078.541-2.302 1.15-3.513 1.769l-9.702 4.949a17421.292 17421.292 0 00-49.791 25.454c-1.423.732-2.505.623-3.86-.389-25.312-18.903-51.068-38.086-75.975-56.638l-12.41-9.245c-6.101-4.546-12.399-9.245-18.63-13.816-1.304-.914-2.343-2.254-2.983-3.85a15627.833 15627.833 0 00-14.597-36.039l-4.772-11.756c-.168-.415-.321-.823-.499-1.296l-.267-.759-.122-.319 21.493-29.79.344.745c.156.338.295.632.423.906.24.505.449.942.63 1.39l4.686 11.534c9.765 24.039 19.865 48.9 29.758 73.381.736 1.812 1.781 3.171 3.387 4.356a29223.584 29223.584 0 0141.465 30.84 41154.61 41154.61 0 0027.591 20.536c.489.365.88.679 1.197.92.644.502.998.781 1.238.81.24.03.56-.163 1.18-.507.357-.199.798-.453 1.378-.738 14.2-7.216 28.63-14.579 42.582-21.702l18.73-9.556c.469-.226.951-.453 1.512-.7l.995-.453.673-.308v.834c0 .679.012 1.334.022 1.959.045 1.27.027 2.542-.053 3.809-.144 1.774.342 3.044 1.677 4.392 2.777 2.802 5.534 5.732 8.202 8.566 1.193 1.267 2.388 2.531 3.584 3.793.303.318.626.619 1 .968l.24.226 9.726-13.444.366.632c.116.203.226.38.329.541.2.303.376.626.525.965a44762.48 44762.48 0 0118.571 45.725c.035.089 1.731 4.199 4.302 10.419 27.841 67.434 39.23 95.049 39.307 95.317l.146.5-16.357 7.701zM-83.195 98.925c.055.143.106.284.158.417.173.453.325.865.486 1.266l4.772 11.757c4.794 11.807 9.752 24.008 14.6 36.039.556 1.406 1.469 2.586 2.619 3.383 6.228 4.58 12.534 9.286 18.635 13.816l12.41 9.245a78081.385 78081.385 0 0175.976 56.64c1.07.8 1.808.877 2.922.304 16.585-8.521 33.467-17.13 49.791-25.455l9.701-4.949c1.214-.62 2.44-1.232 3.521-1.771l1.32-.661.236-.118.219.154c.374.263.71.525 1.007.756a7.92 7.92 0 001.563 1.038c2.275.989 4.605 1.945 6.86 2.869l3.305 1.359c.449.188.893.399 1.409.646.266.126.555.265.882.416l.108.052c-.197-.197-.394-.373-.577-.541-.393-.362-.72-.679-1.045-1.012a1077.677 1077.677 0 01-3.587-3.798c-2.663-2.829-5.419-5.753-8.186-8.546-1.574-1.596-2.18-3.195-2.007-5.347.077-1.226.095-2.455.051-3.683 0-.376-.014-.759-.017-1.153l-.337.148c-.571.253-1.021.453-1.466.679l-18.73 9.556c-13.953 7.123-28.383 14.495-42.586 21.702-.557.285-.984.527-1.34.722-1.6.906-1.791.872-3.4-.387-.31-.245-.698-.548-1.18-.906-9.2-6.84-18.397-13.685-27.592-20.536a27819.339 27819.339 0 00-41.462-30.841c-1.771-1.313-2.926-2.803-3.74-4.828-9.892-24.461-19.992-49.331-29.758-73.382l-4.686-11.53c-.169-.417-.36-.818-.602-1.33l-.08-.17-20.173 27.98z"/></mask><path d="M186.509 353.309l-.374-1.049 15.45-7.281c-2.612-6.412-28.893-70.069-39.068-94.71l-4.306-10.419a45594.653 45594.653 0 00-18.568-45.725 5.084 5.084 0 00-.408-.739l-9.517 13.155-10.647 14.798c.403 1.001.805 1.993 1.206 2.974a596.164 596.164 0 013.263 8.14c.443 1.132 2.506 3.042 3.543 3.789l-.526.958c-.984-.709-3.32-2.774-3.908-4.283-1.053-2.702-2.124-5.336-3.257-8.124l-1.338-3.3-.132-.326 10.295-14.309-.268-.127c-.504-.24-.939-.453-1.366-.627l-3.3-1.359c-2.26-.927-4.596-1.882-6.888-2.877a8.509 8.509 0 01-1.772-1.159c-.24-.186-.488-.376-.755-.573l-1.087.541c-1.078.541-2.302 1.15-3.513 1.769l-9.702 4.949a17421.292 17421.292 0 00-49.791 25.454c-1.423.732-2.505.623-3.86-.389-25.312-18.903-51.068-38.086-75.975-56.638l-12.41-9.245c-6.101-4.546-12.399-9.245-18.63-13.816-1.304-.914-2.343-2.254-2.983-3.85a15627.833 15627.833 0 00-14.597-36.039l-4.772-11.756c-.168-.415-.321-.823-.499-1.296l-.267-.759-.122-.319 21.493-29.79.344.745c.156.338.295.632.423.906.24.505.449.942.63 1.39l4.686 11.534c9.765 24.039 19.865 48.9 29.758 73.381.736 1.812 1.781 3.171 3.387 4.356a29223.584 29223.584 0 0141.465 30.84 41154.61 41154.61 0 0027.591 20.536c.489.365.88.679 1.197.92.644.502.998.781 1.238.81.24.03.56-.163 1.18-.507.357-.199.798-.453 1.378-.738 14.2-7.216 28.63-14.579 42.582-21.702l18.73-9.556c.469-.226.951-.453 1.512-.7l.995-.453.673-.308v.834c0 .679.012 1.334.022 1.959.045 1.27.027 2.542-.053 3.809-.144 1.774.342 3.044 1.677 4.392 2.777 2.802 5.534 5.732 8.202 8.566 1.193 1.267 2.388 2.531 3.584 3.793.303.318.626.619 1 .968l.24.226 9.726-13.444.366.632c.116.203.226.38.329.541.2.303.376.626.525.965a44762.48 44762.48 0 0118.571 45.725c.035.089 1.731 4.199 4.302 10.419 27.841 67.434 39.23 95.049 39.307 95.317l.146.5-16.357 7.701zM-83.195 98.925c.055.143.106.284.158.417.173.453.325.865.486 1.266l4.772 11.757c4.794 11.807 9.752 24.008 14.6 36.039.556 1.406 1.469 2.586 2.619 3.383 6.228 4.58 12.534 9.286 18.635 13.816l12.41 9.245a78081.385 78081.385 0 0175.976 56.64c1.07.8 1.808.877 2.922.304 16.585-8.521 33.467-17.13 49.791-25.455l9.701-4.949c1.214-.62 2.44-1.232 3.521-1.771l1.32-.661.236-.118.219.154c.374.263.71.525 1.007.756a7.92 7.92 0 001.563 1.038c2.275.989 4.605 1.945 6.86 2.869l3.305 1.359c.449.188.893.399 1.409.646.266.126.555.265.882.416l.108.052c-.197-.197-.394-.373-.577-.541-.393-.362-.72-.679-1.045-1.012a1077.677 1077.677 0 01-3.587-3.798c-2.663-2.829-5.419-5.753-8.186-8.546-1.574-1.596-2.18-3.195-2.007-5.347.077-1.226.095-2.455.051-3.683 0-.376-.014-.759-.017-1.153l-.337.148c-.571.253-1.021.453-1.466.679l-18.73 9.556c-13.953 7.123-28.383 14.495-42.586 21.702-.557.285-.984.527-1.34.722-1.6.906-1.791.872-3.4-.387-.31-.245-.698-.548-1.18-.906-9.2-6.84-18.397-13.685-27.592-20.536a27819.339 27819.339 0 00-41.462-30.841c-1.771-1.313-2.926-2.803-3.74-4.828-9.892-24.461-19.992-49.331-29.758-73.382l-4.686-11.53c-.169-.417-.36-.818-.602-1.33l-.08-.17-20.173 27.98z" stroke="#fff" stroke-width="2" mask="url(#d)"/><mask id="e"><path d="M313.221 212.555l-18.489-45.667 3.831.429-.017-.057a25.605 25.605 0 00-.529-1.457l-19.545-46.986-2.819-6.778c-.159-.381-.31-.771-.458-1.148a21.475 21.475 0 00-1.071-2.458c-.997-1.848-.564-3.448-.012-4.767 2.05-4.898 4.114-9.894 6.111-14.724 1.966-4.767 4.003-9.684 6.023-14.527.055-.13.112-.257.175-.38a2.12 2.12 0 01-.116.098 570.318 570.318 0 00-4.102 3.255l-1.927 1.534-.825.659.055-1.156c.179-3.722.599-7.175 1.008-10.514.158-1.296.323-2.635.466-3.95.353-3.227.711-6.458 1.075-9.694.16-1.41.318-2.822.474-4.235l.053-.472.411-.023 3.784-.206c2.719-.15 5.362-.296 8.006-.432l2.913-.152c5.027-.26 10.222-.531 15.333-.749.922-.04 1.557-.579 2.292-1.278 8.81-8.398 17.74-16.89 25.619-24.383a9.61 9.61 0 01.562-.48l.248-.203.576.92-.26.213c-.179.143-.346.28-.501.427-7.879 7.49-16.809 15.984-25.619 24.38-.818.78-1.655 1.484-2.88 1.537-5.111.227-10.308.488-15.332.751l-2.913.15c-2.642.136-5.286.281-8.003.431l-3.373.184-.421 3.766c-.361 3.238-.72 6.469-1.075 9.692a307.206 307.206 0 01-.468 3.965c-.361 2.963-.735 6.015-.935 9.255l1.091-.872c1.431-1.135 2.779-2.218 4.11-3.26.393-.313.427-.68.336-1.466-.09-.785-.165-1.525-.25-2.338l-.119-1.135-.061-.58.505-.053a45.95 45.95 0 017.251-.266l1.18.052-.859.929c-.228.247-.403.454-.549.608a5.821 5.821 0 01-.656.681c-.445.368-.905.727-1.349 1.076-.829.65-1.686 1.323-2.469 2.043a6.537 6.537 0 00-1.572 2.165c-2.019 4.83-4.053 9.76-6.021 14.514-1.997 4.83-4.061 9.826-6.111 14.729-.645 1.541-.657 2.537-.04 3.677.427.835.806 1.701 1.132 2.594.146.37.293.754.447 1.135l2.82 6.776a110044.62 110044.62 0 0119.543 46.986c.197.481.368.967.559 1.532.096.281.196.581.314.908l.309.871-3.735-.417 17.353 42.859 1.478-.752 4.142-2.113c1.525-.779 3.05-1.56 4.574-2.342 4.03-2.068 8.199-4.208 12.319-6.26 1.264-.631 1.624-1.217 1.478-2.411a3.68 3.68 0 01.138-1.264c.037-.157.071-.305.094-.443l.965.211c-.029.182-.07.356-.11.527-.08.261-.118.536-.114.812.26 2.145-.896 3.028-2.062 3.609-4.114 2.043-8.281 4.188-12.309 6.256l-4.574 2.343c-1.362.696-2.722 1.389-4.146 2.113l-2.357 1.196zM286.755 68.704c.022.193.04.38.059.565.085.808.164 1.573.25 2.322.082.49.068.994-.039 1.478.323-.436.68-.837 1.067-1.197.816-.76 1.691-1.446 2.536-2.11.44-.346.894-.702 1.331-1.06.088-.076.172-.157.251-.243a45.643 45.643 0 00-5.455.245zm47.659 114.854l-.226-.418c-1.14-2.111-1.966-4.328-2.91-6.898l-.536-1.444.918.214c.703.165 1.376.318 2.009.454 1.555.356 2.897.665 4.265 1.017 1.229.313 1.146 1.745 1.119 2.215a5.957 5.957 0 000 .567c.027.754.07 1.889-1.062 2.456-.686.343-1.376.695-2.111 1.074l-1.466.763zm-2.033-7.221c.786 2.13 1.508 4.013 2.42 5.782l.686-.35c.743-.381 1.427-.733 2.117-1.078.47-.227.501-.543.472-1.362a6.655 6.655 0 010-.692c.049-.863-.122-.974-.35-1.033a178.317 178.317 0 00-4.244-1.012l-1.101-.255zm-1.27-.317l-.827-.082a24.383 24.383 0 00-.757-.061 7.574 7.574 0 01-1.235-.15 921.974 921.974 0 01-4.43-1.069 420.552 420.552 0 00-7.863-1.864c-1.197-.268-1.944-.953-2.498-2.292-6.07-14.643-12.264-29.508-18.252-43.908l-4.024-9.67c-.285-.681-.562-1.362-.839-2.043-.655-1.611-1.331-3.28-2.072-4.864-.643-1.38-.645-2.569 0-4.108 4.116-9.888 8.266-19.975 12.278-29.706l3.452-8.376 1.348-3.288c1.211-2.951 2.463-6.016 3.747-8.996a6.955 6.955 0 011.869-2.58c5.992-4.88 12.115-9.786 18.035-14.528l2.279-1.827c.334-.258.681-.494 1.038-.708.154-.096.307-.193.459-.293l.331-.227.816.971-.146.355a340.57 340.57 0 00-1.164 2.846c-.838 2.055-1.679 4.107-2.522 6.156l-3.906 9.472c-7.161 17.371-14.565 35.335-21.88 52.983-.497 1.2-.493 2.095 0 3.302 7.368 17.621 14.822 35.557 22.032 52.901l3.42 8.233c.207.493.393.994.612 1.575.11.298.229.618.365.972l.334.874zm1.477-138.988a8.086 8.086 0 00-.718.5l-2.278 1.816c-5.919 4.744-12.04 9.649-18.028 14.527a5.89 5.89 0 00-1.556 2.16c-1.282 2.97-2.53 6.023-3.735 8.973a980.536 980.536 0 01-1.351 3.294l-3.449 8.376a9130.051 9130.051 0 01-12.28 29.71c-.499 1.198-.503 2.042-.016 3.077.751 1.612 1.435 3.294 2.094 4.922l.835 2.042 4.026 9.67c5.987 14.386 12.187 29.265 18.251 43.91.421 1.015.908 1.466 1.799 1.666 2.636.588 5.307 1.237 7.886 1.866 1.474.36 2.949.716 4.425 1.069.351.071.707.114 1.063.127-.015-.041-.031-.079-.045-.12-.214-.57-.393-1.062-.589-1.535l-3.421-8.23a27908.653 27908.653 0 00-22.029-52.901c-.637-1.525-.641-2.765-.012-4.285 7.314-17.648 14.719-35.61 21.88-52.98l3.904-9.473a1384.51 1384.51 0 002.522-6.151l.822-2.03zm9.016 133.803c-.472-1.112-.945-2.224-1.421-3.336-1.008-2.361-2.052-4.801-3.057-7.216-2.174-5.221-4.346-10.442-6.516-15.662-4.187-10.069-8.515-20.481-12.793-30.709-.672-1.605-.701-2.851-.1-4.299 5.537-13.363 11.138-26.963 16.555-40.117 2.301-5.6 4.605-11.191 6.911-16.777.102-.218.258-.397.447-.515.037-.03.074-.057.106-.086l.617.883a2.392 2.392 0 01-.196.154 1.07 1.07 0 00-.109.086c-2.299 5.58-4.599 11.16-6.897 16.743-5.418 13.154-11.008 26.755-16.555 40.117-.474 1.135-.448 2.011.098 3.319 4.279 10.227 8.608 20.642 12.793 30.711 2.172 5.223 4.345 10.444 6.516 15.661a938.882 938.882 0 003.053 7.205c.475 1.112.95 2.225 1.423 3.339l-.875.499z"/></mask><path d="M313.221 212.555l-18.489-45.667 3.831.429-.017-.057a25.605 25.605 0 00-.529-1.457l-19.545-46.986-2.819-6.778c-.159-.381-.31-.771-.458-1.148a21.475 21.475 0 00-1.071-2.458c-.997-1.848-.564-3.448-.012-4.767 2.05-4.898 4.114-9.894 6.111-14.724 1.966-4.767 4.003-9.684 6.023-14.527.055-.13.112-.257.175-.38a2.12 2.12 0 01-.116.098 570.318 570.318 0 00-4.102 3.255l-1.927 1.534-.825.659.055-1.156c.179-3.722.599-7.175 1.008-10.514.158-1.296.323-2.635.466-3.95.353-3.227.711-6.458 1.075-9.694.16-1.41.318-2.822.474-4.235l.053-.472.411-.023 3.784-.206c2.719-.15 5.362-.296 8.006-.432l2.913-.152c5.027-.26 10.222-.531 15.333-.749.922-.04 1.557-.579 2.292-1.278 8.81-8.398 17.74-16.89 25.619-24.383a9.61 9.61 0 01.562-.48l.248-.203.576.92-.26.213c-.179.143-.346.28-.501.427-7.879 7.49-16.809 15.984-25.619 24.38-.818.78-1.655 1.484-2.88 1.537-5.111.227-10.308.488-15.332.751l-2.913.15c-2.642.136-5.286.281-8.003.431l-3.373.184-.421 3.766c-.361 3.238-.72 6.469-1.075 9.692a307.206 307.206 0 01-.468 3.965c-.361 2.963-.735 6.015-.935 9.255l1.091-.872c1.431-1.135 2.779-2.218 4.11-3.26.393-.313.427-.68.336-1.466-.09-.785-.165-1.525-.25-2.338l-.119-1.135-.061-.58.505-.053a45.95 45.95 0 017.251-.266l1.18.052-.859.929c-.228.247-.403.454-.549.608a5.821 5.821 0 01-.656.681c-.445.368-.905.727-1.349 1.076-.829.65-1.686 1.323-2.469 2.043a6.537 6.537 0 00-1.572 2.165c-2.019 4.83-4.053 9.76-6.021 14.514-1.997 4.83-4.061 9.826-6.111 14.729-.645 1.541-.657 2.537-.04 3.677.427.835.806 1.701 1.132 2.594.146.37.293.754.447 1.135l2.82 6.776a110044.62 110044.62 0 0119.543 46.986c.197.481.368.967.559 1.532.096.281.196.581.314.908l.309.871-3.735-.417 17.353 42.859 1.478-.752 4.142-2.113c1.525-.779 3.05-1.56 4.574-2.342 4.03-2.068 8.199-4.208 12.319-6.26 1.264-.631 1.624-1.217 1.478-2.411a3.68 3.68 0 01.138-1.264c.037-.157.071-.305.094-.443l.965.211c-.029.182-.07.356-.11.527-.08.261-.118.536-.114.812.26 2.145-.896 3.028-2.062 3.609-4.114 2.043-8.281 4.188-12.309 6.256l-4.574 2.343c-1.362.696-2.722 1.389-4.146 2.113l-2.357 1.196zM286.755 68.704c.022.193.04.38.059.565.085.808.164 1.573.25 2.322.082.49.068.994-.039 1.478.323-.436.68-.837 1.067-1.197.816-.76 1.691-1.446 2.536-2.11.44-.346.894-.702 1.331-1.06.088-.076.172-.157.251-.243a45.643 45.643 0 00-5.455.245zm47.659 114.854l-.226-.418c-1.14-2.111-1.966-4.328-2.91-6.898l-.536-1.444.918.214c.703.165 1.376.318 2.009.454 1.555.356 2.897.665 4.265 1.017 1.229.313 1.146 1.745 1.119 2.215a5.957 5.957 0 000 .567c.027.754.07 1.889-1.062 2.456-.686.343-1.376.695-2.111 1.074l-1.466.763zm-2.033-7.221c.786 2.13 1.508 4.013 2.42 5.782l.686-.35c.743-.381 1.427-.733 2.117-1.078.47-.227.501-.543.472-1.362a6.655 6.655 0 010-.692c.049-.863-.122-.974-.35-1.033a178.317 178.317 0 00-4.244-1.012l-1.101-.255zm-1.27-.317l-.827-.082a24.383 24.383 0 00-.757-.061 7.574 7.574 0 01-1.235-.15 921.974 921.974 0 01-4.43-1.069 420.552 420.552 0 00-7.863-1.864c-1.197-.268-1.944-.953-2.498-2.292-6.07-14.643-12.264-29.508-18.252-43.908l-4.024-9.67c-.285-.681-.562-1.362-.839-2.043-.655-1.611-1.331-3.28-2.072-4.864-.643-1.38-.645-2.569 0-4.108 4.116-9.888 8.266-19.975 12.278-29.706l3.452-8.376 1.348-3.288c1.211-2.951 2.463-6.016 3.747-8.996a6.955 6.955 0 011.869-2.58c5.992-4.88 12.115-9.786 18.035-14.528l2.279-1.827c.334-.258.681-.494 1.038-.708.154-.096.307-.193.459-.293l.331-.227.816.971-.146.355a340.57 340.57 0 00-1.164 2.846c-.838 2.055-1.679 4.107-2.522 6.156l-3.906 9.472c-7.161 17.371-14.565 35.335-21.88 52.983-.497 1.2-.493 2.095 0 3.302 7.368 17.621 14.822 35.557 22.032 52.901l3.42 8.233c.207.493.393.994.612 1.575.11.298.229.618.365.972l.334.874zm1.477-138.988a8.086 8.086 0 00-.718.5l-2.278 1.816c-5.919 4.744-12.04 9.649-18.028 14.527a5.89 5.89 0 00-1.556 2.16c-1.282 2.97-2.53 6.023-3.735 8.973a980.536 980.536 0 01-1.351 3.294l-3.449 8.376a9130.051 9130.051 0 01-12.28 29.71c-.499 1.198-.503 2.042-.016 3.077.751 1.612 1.435 3.294 2.094 4.922l.835 2.042 4.026 9.67c5.987 14.386 12.187 29.265 18.251 43.91.421 1.015.908 1.466 1.799 1.666 2.636.588 5.307 1.237 7.886 1.866 1.474.36 2.949.716 4.425 1.069.351.071.707.114 1.063.127-.015-.041-.031-.079-.045-.12-.214-.57-.393-1.062-.589-1.535l-3.421-8.23a27908.653 27908.653 0 00-22.029-52.901c-.637-1.525-.641-2.765-.012-4.285 7.314-17.648 14.719-35.61 21.88-52.98l3.904-9.473a1384.51 1384.51 0 002.522-6.151l.822-2.03zm9.016 133.803c-.472-1.112-.945-2.224-1.421-3.336-1.008-2.361-2.052-4.801-3.057-7.216-2.174-5.221-4.346-10.442-6.516-15.662-4.187-10.069-8.515-20.481-12.793-30.709-.672-1.605-.701-2.851-.1-4.299 5.537-13.363 11.138-26.963 16.555-40.117 2.301-5.6 4.605-11.191 6.911-16.777.102-.218.258-.397.447-.515.037-.03.074-.057.106-.086l.617.883a2.392 2.392 0 01-.196.154 1.07 1.07 0 00-.109.086c-2.299 5.58-4.599 11.16-6.897 16.743-5.418 13.154-11.008 26.755-16.555 40.117-.474 1.135-.448 2.011.098 3.319 4.279 10.227 8.608 20.642 12.793 30.711 2.172 5.223 4.345 10.444 6.516 15.661a938.882 938.882 0 003.053 7.205c.475 1.112.95 2.225 1.423 3.339l-.875.499z" stroke="#fff" stroke-width="2" mask="url(#e)"/><mask id="f"><path d="M282.389 164.108a2.092 2.092 0 01-.498-.052 836.452 836.452 0 01-4.36-1.047c-2.543-.616-5.171-1.255-7.763-1.835-1.151-.258-1.86-.906-2.374-2.136-1.501-3.624-3.041-7.301-4.527-10.857-2.952-7.073-6.018-14.385-8.931-21.634-.719-1.787-1.03-3.787-1.333-5.722a70.94 70.94 0 00-.339-2.055c-.69-3.735-1.356-7.541-2.001-11.219l-.481-2.748a9.865 9.865 0 01-.108-1.002 24.656 24.656 0 00-.047-.604l-.032-.331.237-.193c.614-.5 1.24-1.033 1.842-1.547a46.902 46.902 0 014.405-3.463c2.33-1.545 3.393-3.487 3.667-6.699.551-6.454 1.321-12.984 2.066-19.302.288-2.436.591-4.952.864-7.43.584-5.174 1.171-10.347 1.76-15.518l1.522-13.428c1.002-8.854 2.003-17.709 3.003-26.563l.37-3.282c.217-1.927.435-3.855.656-5.783.62-5.46 1.259-11.1 1.864-16.657.145-1.341.228-2.718.314-4.152.042-.707.087-1.434.14-2.195l.032-.453.393-.062c.14-.02.298-.05.465-.081a11.96 11.96 0 011.427-.2c3.773-.226 7.245-.43 10.613-.602l2.48-.127c8.266-.424 16.821-.863 25.235-1.244.848-.038 1.523-.367 2.334-1.132 7.422-7.061 14.979-14.224 22.287-21.151l3.519-3.337c.183-.172.372-.33.555-.482l.246-.209.59.906-.257.227c-.177.147-.347.29-.506.44l-3.519 3.336a17945.18 17945.18 0 00-22.287 21.149c-.984.93-1.852 1.359-2.921 1.397-8.412.381-16.962.818-25.231 1.244l-2.478.127c-3.366.172-6.836.37-10.607.603-.443.034-.885.096-1.323.185l-.094.018c-.041.596-.075 1.172-.108 1.733-.089 1.464-.172 2.846-.321 4.216-.604 5.557-1.246 11.202-1.864 16.661-.221 1.93-.439 3.859-.656 5.786l-.372 3.28c-.999 8.854-2 17.708-3.001 26.562-.505 4.477-1.013 8.954-1.524 13.431l-1.757 15.515c-.282 2.492-.579 5.002-.866 7.44-.744 6.306-1.514 12.825-2.061 19.254-.305 3.575-1.549 5.84-4.157 7.569a46.237 46.237 0 00-4.308 3.397c-.532.453-1.081.922-1.628 1.36 0 .104.015.203.023.296.016.293.046.584.091.872l.48 2.751c.646 3.676 1.311 7.475 2 11.208.128.691.238 1.402.346 2.089.29 1.866.591 3.794 1.256 5.45 2.909 7.238 5.968 14.548 8.926 21.615 1.488 3.559 3.027 7.236 4.527 10.874.378.906.833 1.323 1.675 1.511 2.598.582 5.232 1.221 7.777 1.837 1.45.351 2.901.704 4.353 1.046.152.029.306.038.459.025l-.01-.027c-.167-.453-.311-.863-.468-1.246a17921.65 17921.65 0 00-7.826-18.772l-3.401-8.155c-3.848-9.231-7.828-18.777-11.792-28.137-.766-1.813-.752-3.283.047-4.934.921-1.903 1.644-3.52 2.165-5.21 1.264-4.055 3.37-6.891 6.439-8.67.885-.514 1.297-1.313 1.462-2.854a4787.53 4787.53 0 012.88-26.05 27483.75 27483.75 0 014.314-38.152c.169-1.49.362-3 .551-4.458l.264-2.068.059-.474 1.336-.032 2.701 16.97h.571c.59 0 1.108 0 1.615-.012 2.656-.124 5.356-.265 7.966-.4l1.267-.067 5.512-.29c4.572-.242 9.3-.491 13.953-.706 1.263-.038 2.474-.587 3.42-1.552 5.952-5.736 11.948-11.401 17.746-16.878l.626.876c-5.798 5.475-11.792 11.139-17.74 16.872-1.114 1.122-2.533 1.763-4.013 1.812-4.651.213-9.377.453-13.947.707l-5.511.29-1.268.066c-2.612.136-5.314.276-7.971.4-.532.026-1.055.019-1.663.012h-1.384l-2.512-15.782c-.017.14-.037.28-.055.421-.197 1.454-.38 2.958-.549 4.44a34774.103 34774.103 0 00-4.314 38.15 6239.968 6239.968 0 00-2.878 26.037c-.145 1.359-.496 2.858-1.996 3.728-2.832 1.64-4.781 4.27-5.954 8.04-.553 1.771-1.295 3.434-2.239 5.387-.642 1.325-.648 2.414-.024 3.887 3.966 9.362 7.948 18.91 11.796 28.144l3.401 8.155c2.61 6.256 5.218 12.515 7.826 18.774.169.41.318.825.49 1.305l.281.777.291.788h-.744c-.187 0-.352 0-.501.016-.15.016-.256-.004-.378-.004z"/></mask><path d="M282.389 164.108a2.092 2.092 0 01-.498-.052 836.452 836.452 0 01-4.36-1.047c-2.543-.616-5.171-1.255-7.763-1.835-1.151-.258-1.86-.906-2.374-2.136-1.501-3.624-3.041-7.301-4.527-10.857-2.952-7.073-6.018-14.385-8.931-21.634-.719-1.787-1.03-3.787-1.333-5.722a70.94 70.94 0 00-.339-2.055c-.69-3.735-1.356-7.541-2.001-11.219l-.481-2.748a9.865 9.865 0 01-.108-1.002 24.656 24.656 0 00-.047-.604l-.032-.331.237-.193c.614-.5 1.24-1.033 1.842-1.547a46.902 46.902 0 014.405-3.463c2.33-1.545 3.393-3.487 3.667-6.699.551-6.454 1.321-12.984 2.066-19.302.288-2.436.591-4.952.864-7.43.584-5.174 1.171-10.347 1.76-15.518l1.522-13.428c1.002-8.854 2.003-17.709 3.003-26.563l.37-3.282c.217-1.927.435-3.855.656-5.783.62-5.46 1.259-11.1 1.864-16.657.145-1.341.228-2.718.314-4.152.042-.707.087-1.434.14-2.195l.032-.453.393-.062c.14-.02.298-.05.465-.081a11.96 11.96 0 011.427-.2c3.773-.226 7.245-.43 10.613-.602l2.48-.127c8.266-.424 16.821-.863 25.235-1.244.848-.038 1.523-.367 2.334-1.132 7.422-7.061 14.979-14.224 22.287-21.151l3.519-3.337c.183-.172.372-.33.555-.482l.246-.209.59.906-.257.227c-.177.147-.347.29-.506.44l-3.519 3.336a17945.18 17945.18 0 00-22.287 21.149c-.984.93-1.852 1.359-2.921 1.397-8.412.381-16.962.818-25.231 1.244l-2.478.127c-3.366.172-6.836.37-10.607.603-.443.034-.885.096-1.323.185l-.094.018c-.041.596-.075 1.172-.108 1.733-.089 1.464-.172 2.846-.321 4.216-.604 5.557-1.246 11.202-1.864 16.661-.221 1.93-.439 3.859-.656 5.786l-.372 3.28c-.999 8.854-2 17.708-3.001 26.562-.505 4.477-1.013 8.954-1.524 13.431l-1.757 15.515c-.282 2.492-.579 5.002-.866 7.44-.744 6.306-1.514 12.825-2.061 19.254-.305 3.575-1.549 5.84-4.157 7.569a46.237 46.237 0 00-4.308 3.397c-.532.453-1.081.922-1.628 1.36 0 .104.015.203.023.296.016.293.046.584.091.872l.48 2.751c.646 3.676 1.311 7.475 2 11.208.128.691.238 1.402.346 2.089.29 1.866.591 3.794 1.256 5.45 2.909 7.238 5.968 14.548 8.926 21.615 1.488 3.559 3.027 7.236 4.527 10.874.378.906.833 1.323 1.675 1.511 2.598.582 5.232 1.221 7.777 1.837 1.45.351 2.901.704 4.353 1.046.152.029.306.038.459.025l-.01-.027c-.167-.453-.311-.863-.468-1.246a17921.65 17921.65 0 00-7.826-18.772l-3.401-8.155c-3.848-9.231-7.828-18.777-11.792-28.137-.766-1.813-.752-3.283.047-4.934.921-1.903 1.644-3.52 2.165-5.21 1.264-4.055 3.37-6.891 6.439-8.67.885-.514 1.297-1.313 1.462-2.854a4787.53 4787.53 0 012.88-26.05 27483.75 27483.75 0 014.314-38.152c.169-1.49.362-3 .551-4.458l.264-2.068.059-.474 1.336-.032 2.701 16.97h.571c.59 0 1.108 0 1.615-.012 2.656-.124 5.356-.265 7.966-.4l1.267-.067 5.512-.29c4.572-.242 9.3-.491 13.953-.706 1.263-.038 2.474-.587 3.42-1.552 5.952-5.736 11.948-11.401 17.746-16.878l.626.876c-5.798 5.475-11.792 11.139-17.74 16.872-1.114 1.122-2.533 1.763-4.013 1.812-4.651.213-9.377.453-13.947.707l-5.511.29-1.268.066c-2.612.136-5.314.276-7.971.4-.532.026-1.055.019-1.663.012h-1.384l-2.512-15.782c-.017.14-.037.28-.055.421-.197 1.454-.38 2.958-.549 4.44a34774.103 34774.103 0 00-4.314 38.15 6239.968 6239.968 0 00-2.878 26.037c-.145 1.359-.496 2.858-1.996 3.728-2.832 1.64-4.781 4.27-5.954 8.04-.553 1.771-1.295 3.434-2.239 5.387-.642 1.325-.648 2.414-.024 3.887 3.966 9.362 7.948 18.91 11.796 28.144l3.401 8.155c2.61 6.256 5.218 12.515 7.826 18.774.169.41.318.825.49 1.305l.281.777.291.788h-.744c-.187 0-.352 0-.501.016-.15.016-.256-.004-.378-.004z" stroke="#fff" stroke-width="2" mask="url(#f)"/><path d="M298.371 238.323h0l-3.7 1.934.034.089 3.603-1.885h.001l2.164-1.13c2.257-1.179 4.548-2.377 6.819-3.547h0c5.269-2.713 10.591-5.445 15.867-8.152l9.529-4.892h0l2.967-1.523-37.284 19.106zm0 0c2.943-1.541 5.983-3.132 8.982-4.679 8.461-4.36 17.072-8.783 25.396-13.044h.001m-34.379 17.723L332.75 220.6m0 0l2.967-1.522.001-.001m-2.968 1.523l2.968-1.523m0 0c.374-.192.767-.366 1.238-.575h.001m-1.239.575l1.239-.575m0 0l.311-.138m-.311.138l.311-.138m0 0l.034.097m-.034-.097l.034.097m0 0l-.404.181h-.001a8.661 8.661 0 00-.094.042c-.427.189-.79.349-1.147.533l1.646-.756zM114.577 218.851a5.416 5.416 0 00.03-.306l.002-.052v-.014-.005s0 0 0 0l.499-.031-.531.408zm0 0h-.693l-.094.04-.059.026c-.414.177-.765.327-1.101.494-4.608 2.291-9.636 4.785-14.296 7.093h0l-.409.203a9493.059 9493.059 0 00-11.244 5.578c-1.58.786-2.904 1.446-3.858 1.926-.499.25-.906.456-1.196.604l-.043-.084c.216-.111.51-.261.882-.448.788-.398 1.92-.964 3.38-1.69 2.46-1.225 5.847-2.904 10.079-5.001l2.45-1.214h0l3.567-1.769c3.59-1.78 7.278-3.609 10.728-5.324.332-.164.663-.306 1.091-.491l.064-.027.001-.001c.106-.045.205-.089.305-.133.148-.066.297-.132.475-.204l-.029.422zm-3.813 21.031l-.002.001.01-.074c.056-.401.153-.987.299-1.818.293-1.661.784-4.281 1.549-8.324l.001-.001.177-.942c.571-3.027 1.195-6.338 1.541-8.339-.052.306-.112.649-.18 1.03a956.985 956.985 0 01-1.538 8.292c-.421 2.229-.895 4.732-1.264 6.747a204.636 204.636 0 00-.456 2.567c-.057.335-.102.619-.134.838l-.003.023zm-.049.478v-.005l.038.002-.038.003z" stroke="#fff"/><mask id="g"><path d="M48.047 196.03c-.657 0-1.296-.261-2-.788a9369.192 9369.192 0 00-34.15-25.476c-1.134-.845-1.864-1.773-2.36-3.018-11.979-29.57-24.174-59.629-35.966-88.696l-10.853-26.75c-.183-.454-.34-.907-.54-1.468-.103-.29-.215-.61-.344-.97l-.352-.932 5.275 1.039c1.308-3.34 10.609-30.485 22.708-66.282 12.27-36.302 21.184-63.057 22.24-66.74l-.5-.348c-.617-.433-1.256-.879-1.901-1.309L-10.11-98.616l-15.482-10.294-10.071-6.701c-19.176-12.774-39.013-25.967-58.504-38.981-1.205-.806-2.078-.906-3.222-.369-1.574.738-3.204 1.372-4.781 1.986a98.88 98.88 0 00-2.279.906 9.484 9.484 0 00-.938.453h-.013c.027.029.053.056.078.079.063.053.129.102.197.145l.078.054c.225.154.449.306.675.453l13.23 8.807L.968-80.771c.12.083.232.181.334.292l.05.05c.065.069.125.144.179.226.047.066.112.156.214.294l.196.256-.106.315C-7.257-52.264-16.574-24.634-25.582 2.087c-5.086 15.083-10.18 30.196-15.282 45.34l-.15.452-.407-.092a29.274 29.274 0 00-1.046-.227c-.787-.168-1.524-.326-2.265-.562-.934-.298-1.532-.054-2.206.906a1285.268 1285.268 0 01-6.236 8.696c-1.78 2.466-3.618 5.016-5.413 7.536-.822 1.191-1.895 2.12-3.117 2.7-8.217 3.935-16.563 7.966-24.634 11.863l-10.169 4.91c-.36.174-.721.315-1.18.491l-.806.29-.763.31 3.91-31.909c-2.258 6.52-4.478 13.134-6.633 19.56a3194.052 3194.052 0 01-3.988 11.849 7600.778 7600.778 0 00-7.372 21.875c-1.311 3.89-2.618 7.78-3.923 11.669l-8.077 23.956-14.787 43.847-8.607-3.532.183-.541 53.302-158.187-8.279-5.596.579-1.306 11.945 4.932-.025.428c-.197 3.295-.64 6.612-1.06 9.821-.394 3.01-.804 6.114-1.033 9.284l.077-.029c.433-.158.773-.285 1.097-.453l14.392-6.94c11.977-5.777 24.362-11.751 36.551-17.603.861-.412 1.351-1.034 1.748-2.216 4.694-13.984 9.484-28.189 14.117-41.93l3.86-11.45c3.648-10.825 7.294-21.654 10.938-32.486.25-.743.49-1.508.746-2.319.086-.276.175-.564.27-.86l-.32-.227c-.444-.33-.864-.643-1.3-.933L-33.85-91.842a117632.09 117632.09 0 01-81.398-54.217c-1.258-.838-2.218-.94-3.421-.356a23.72 23.72 0 01-6.033 2l-1.8.342 124.26-117.976.09 1.06c.22 2.624.196 5.118.175 7.531-.018 2.014-.036 3.925.082 5.843H9.51l-1.276 1.03c-.486.39-.944.766-1.377 1.132-.963.793-1.874 1.54-2.804 2.226-.913.677-1.632 1.65-2.064 2.797a4739.28 4739.28 0 01-12.933 31.266c-.5 1.193-.5 2.126 0 3.322a50516.761 50516.761 0 0131.299 74.955l.983 2.355c.35.836.713 1.413 1.449 1.71a786.117 786.117 0 019.895 4.076c1.636.678 3.274 1.353 4.916 2.027.077.027.156.045.236.054a3.739 3.739 0 00-.413-1.132c-.081-.168-.166-.342-.24-.521-4.185-10.073-8.456-20.304-12.585-30.197l-6.23-14.926c-4.931-11.822-10.028-24.046-15.082-36.053-.627-1.492-.623-2.78.014-4.302a12495.693 12495.693 0 0021.04-50.874c.655-1.67 1.7-3.098 3.017-4.124 4.45-3.515 8.949-7.131 13.298-10.627 1.81-1.451 3.618-2.903 5.426-4.355.253-.204.519-.389.824-.605.159-.111.332-.226.525-.371l.662-.476.087.906c.11 1.148-.282 1.966-.59 2.623a8.09 8.09 0 00-.224.489c-4.623 11.225-9.343 22.629-13.905 33.657l-2.984 7.215-2.93 7.09a3443.129 3443.129 0 01-8.934 21.501c-.59 1.4-.59 2.502.016 3.934 10.422 24.862 20.967 50.161 31.173 74.628l4.603 11.035c.181.437.342.87.545 1.418.104.281.218.591.352.942l.41 1.089-1.684-.536 11.515 7.726-.152.453L9.758 60.024.687 57.852l53.485-158.755-.393-.29a34.821 34.821 0 00-1.341-.955 8418.246 8418.246 0 01-10.652-7.102c-11.059-7.402-22.493-15.031-33.808-22.393-2.507-1.628-4.13-3.657-5.421-6.778-9.81-23.705-19.585-47.047-28.687-68.739-.667-1.585-.655-2.944.04-4.529 1.611-3.648 3.128-7.407 4.396-10.6.468-1.19 1.218-2.203 2.163-2.926 1.644-1.304 3.305-2.654 4.916-3.956 3.295-2.674 6.703-5.435 10.152-7.998 1.683-1.248 1.966-2.611 1.715-4.817l-.03.028c-.417.346-.786.645-1.115.967a91425.859 91425.859 0 00-22.81 21.65l-4.186 3.975-.1.099a4.034 4.034 0 01-.222.211c-4.057 3.428-7.937 7.276-11.689 10.994-2.619 2.6-5.328 5.285-8.081 7.815-4.668 4.284-9.339 8.757-13.857 13.08a1137.132 1137.132 0 01-6.03 5.754l-2.69 2.554a22781.417 22781.417 0 00-17.175 16.32c-.087.082-.17.166-.252.254l.474-.17a25.958 25.958 0 003.382-1.395c1.687-.89 2.95-.226 4.094.55 12.781 8.538 25.797 17.192 38.38 25.562l27.613 18.372 37.306 24.819c.529.35 1.042.713 1.636 1.132.293.206.604.426.94.659l.352.247-.147.453a6490.887 6490.887 0 01-10.34 30.781L7.367-41.444A32794.117 32794.117 0 01-5.242-4.002l-3.022 8.971c-3.766 11.178-7.533 22.353-11.342 33.653l-4.251 12.613 7.832 1.889L33.047-92.483-74.578-164.1l.498-.521c1.044-1.098 2.102-1.393 3.327-.929.061.023.123.048.183.075l.179.073c.434.154.873.36 1.297.557.932.437 1.811.849 2.557.711.704-.129 1.424-.922 2.12-1.69.294-.323.59-.659.908-.953 5.387-5.103 10.767-10.209 16.142-15.319l10.41-9.883c.47-.453.944-.874 1.494-1.37l.891-.808.482-.439 22.544 54.017-1.05-.344c-3.174-1.04-6.062-2.265-8.849-3.463-1.405-.597-2.733-1.164-4.097-1.709-2.867-1.133-5.766-2.353-8.57-3.524l-1.276-.532 79.785 53.1-.151.453L-6.917 55.223c.29.084.57.17.848.254.88.299 1.777.52 2.686.663 1.73.227 2.442 1.418 2.95 2.684 8.972 22.178 18.121 44.712 26.968 66.506l4.552 11.209c3.43 8.454 6.86 16.908 10.294 25.363l5.15 12.681c.067.167.136.337.197.505.422 1.032.729 1.777.965 1.884.236.106.86-.227 1.728-.661 3.21-1.638 6.417-3.279 9.624-4.921l8.876-4.529c8.944-4.57 17.891-9.137 26.84-13.7l16.817-8.585c.181-.091.358-.19.537-.29a9.527 9.527 0 011.117-.557c.692-.274.942-.734.922-1.694-.039-1.904-.027-3.85-.016-5.706v-.877c0-.514.032-1.014.061-1.546.014-.247.03-.496.042-.757l.037-.844.665.364c1.502.822 35.304 36.164 38.071 39.805l.275.363-11.954 16.601-.379-.374c-3.064-3.018-6.029-6.175-8.896-9.23-1.426-1.519-2.901-3.091-4.362-4.615-3.073-3.209-6.156-6.467-9.139-9.617-1.219-1.29-2.43-2.567-3.632-3.834-.183.136-.36.272-.533.405-.516.425-1.062.797-1.634 1.112-7.57 3.875-15.142 7.747-22.714 11.615-13.276 6.793-27.008 13.813-40.507 20.731a3.301 3.301 0 01-1.492.399zM-36.93 49.38l.012.032c.197.553.346.988.52 1.414l10.858 26.75c11.798 29.069 23.99 59.126 35.966 88.698.421 1.04 1.04 1.823 2.01 2.543a11670.67 11670.67 0 0134.154 25.48c.953.716 1.604.786 2.582.286 13.493-6.932 27.224-13.947 40.507-20.734 7.572-3.869 15.143-7.74 22.713-11.612a10.45 10.45 0 001.487-1.019c.275-.213.56-.433.875-.657l.317-.227.273.29 3.911 4.126c2.981 3.15 6.064 6.409 9.136 9.615a653.21 653.21 0 014.367 4.622c2.743 2.921 5.573 5.935 8.491 8.832l10.772-14.964c-3.876-4.663-31.974-34.103-36.823-38.619-.023.417-.043.818-.045 1.212v.878c-.012 1.859-.024 3.784.014 5.662.031 1.444-.488 2.357-1.585 2.792a9.133 9.133 0 00-1.009.505c-.187.106-.375.21-.566.308l-16.817 8.582-26.84 13.7-8.873 4.529a5761.16 5761.16 0 01-9.635 4.921c-2.487 1.27-2.784 1.132-3.98-1.773-.07-.17-.14-.342-.208-.514l-.126-.31-5.022-12.367c-3.43-8.454-6.862-16.908-10.294-25.362l-4.55-11.209a57928.64 57928.64 0 01-26.97-66.509c-.479-1.177-.984-1.888-2.164-2.038a16.834 16.834 0 01-2.835-.693 36.687 36.687 0 00-1.377-.403l-.548-.15.196-.606L43.17-96.58l-81.74-54.376.59-1.436c-.833.811-1.614.974-2.607.548a853.158 853.158 0 00-7.76-3.254l-3.842-1.598a3.134 3.134 0 01-.538-.315l-.156-.104-.218-.136-.035-.283c0-.05-.012-.091-.018-.127a1.584 1.584 0 01-.024-.283.921.921 0 01.177-.58c.079-.095.158-.192.234-.29.24-.308.496-.598.77-.867 6.449-6.114 13.08-12.376 19.706-18.623.167-.14.36-.237.562-.283.107-.034.236-.075.394-.139l.527-.203.112.625c.228 1.271.457 2.525.686 3.761.511 2.794.997 5.435 1.441 8.134.11.668.215 1.23.3 1.678.477 2.57.416 2.774-1.308 4.346-.311.283-.698.636-1.15 1.071-.994.953-2.008 1.913-2.99 2.842a367.709 367.709 0 00-4.241 4.055l.405.168 3.762 1.565c2.8 1.168 5.702 2.378 8.555 3.519 1.377.548 2.769 1.132 4.116 1.716 2.462 1.051 4.998 2.131 7.728 3.08l-21.054-50.462-.411.371c-.545.492-1.015.917-1.477 1.359-3.47 3.293-6.94 6.587-10.408 9.882a16295.078 16295.078 0 01-16.14 15.32c-.28.267-.56.573-.853.905-.806.888-1.638 1.812-2.645 1.991-1.007.179-2.069-.304-3.085-.779-.423-.199-.822-.387-1.215-.525-.079-.028-.156-.062-.232-.093l-.148-.061a1.761 1.761 0 00-.925-.149 1.838 1.838 0 00-.882.352l107.136 71.29-.152.452L-15.41 54.451l-9.784-2.36 4.672-13.858c3.809-11.3 7.574-22.475 11.34-33.653l3.024-8.972c4.204-12.479 8.407-24.96 12.608-37.441a6026.66 6026.66 0 015.339-15.831c3.353-9.926 6.817-20.184 10.192-30.345l-.59-.419c-.59-.414-1.095-.772-1.615-1.116l-37.305-24.819-27.614-18.372c-12.585-8.378-25.596-17.024-38.382-25.564-1.21-.808-2.037-1.107-3.19-.498a26.67 26.67 0 01-3.5 1.445c-.497.179-1.01.362-1.507.557l-.343.131-.731-1.152.313-.342.336-.381c.25-.285.51-.579.786-.849 5.723-5.444 11.448-10.885 17.177-16.322l2.69-2.553c2.013-1.913 4.052-3.865 6.026-5.754 4.523-4.327 9.195-8.799 13.871-13.093 2.74-2.516 5.441-5.195 8.062-7.788 3.766-3.731 7.66-7.592 11.747-11.048.053-.045.105-.097.154-.147l.126-.125 4.186-3.974c7.603-7.219 15.207-14.436 22.81-21.651.364-.342.733-.652 1.162-1.01l.673-.566.633-.543.143.894c.403 2.534.553 4.964-2.023 6.873-3.431 2.545-6.831 5.303-10.119 7.971a668.512 668.512 0 01-4.916 3.965c-.798.607-1.43 1.461-1.827 2.464-1.274 3.204-2.794 6.974-4.412 10.643-.557 1.259-.565 2.246-.034 3.517 9.099 21.691 18.877 45.036 28.686 68.75 1.197 2.894 2.697 4.773 5.016 6.279 11.32 7.358 22.757 14.989 33.821 22.369 3.549 2.369 7.099 4.736 10.65 7.101.458.306.905.635 1.377.981.232.172.476.351.733.537l.344.249-.147.435L2.018 56.989l7.12 1.706L64.317-105.03 51.16-113.86l.57-1.295 2.257.72a33.245 33.245 0 00-.476-1.237l-4.603-11.032c-10.203-24.457-20.757-49.767-31.173-74.629-.727-1.739-.731-3.209-.013-4.919 3.006-7.147 6.017-14.44 8.929-21.494l2.93-7.091 2.985-7.214c4.564-11.028 9.28-22.432 13.904-33.655.078-.19.167-.374.254-.553.156-.298.287-.611.393-.937-.17.12-.319.226-.464.348-1.81 1.45-3.617 2.901-5.423 4.355-4.354 3.499-8.85 7.115-13.307 10.632-1.175.903-2.107 2.167-2.692 3.648a13583.95 13583.95 0 01-21.04 50.879c-.513 1.232-.517 2.133-.016 3.326 5.05 12.002 10.15 24.23 15.084 36.058l6.23 14.923c4.13 9.896 8.402 20.127 12.584 30.199.061.148.134.299.213.453.3.625.678 1.402.513 2.426l-.087.536-.468-.079c-.123-.023-.231-.034-.334-.048a2.303 2.303 0 01-.637-.135l-4.916-2.038a1727.12 1727.12 0 00-9.887-4.061c-1.114-.453-1.626-1.358-2.01-2.289l-.982-2.353a62419.091 62419.091 0 00-31.297-74.955c-.633-1.51-.633-2.797 0-4.302 3.942-9.43 8.05-19.362 12.929-31.251.51-1.336 1.349-2.471 2.412-3.265a76.065 76.065 0 002.765-2.194l.128-.104h-9.216l-.038-.519c-.159-2.147-.141-4.246-.122-6.467.02-2.038.038-4.16-.094-6.341l-119.897 113.827a22.906 22.906 0 003.901-1.481c1.487-.72 2.773-.595 4.295.422a90845.842 90845.842 0 0081.407 54.214l22.904 15.247c.457.303.885.623 1.341.962.213.157.427.317.645.476l.337.244-.136.428c-.144.453-.277.877-.405 1.284a124.95 124.95 0 01-.751 2.342A61157.537 61157.537 0 01-20.36-39.36l-3.862 11.449a33427.639 33427.639 0 00-14.117 41.927c-.491 1.467-1.18 2.321-2.286 2.856a18907.972 18907.972 0 00-36.55 17.6l-14.391 6.94c-.362.177-.74.315-1.18.476-.23.086-.482.178-.767.29l-.7.273.053-.849c.215-3.494.663-6.906 1.098-10.206.418-3.186.814-6.205 1.022-9.305l-7.8-3.22 5.808 3.927-53.424 158.542 6.754 2.772 14.441-42.822c2.694-7.985 5.386-15.97 8.076-23.956 1.311-3.889 2.619-7.779 3.923-11.669 2.411-7.174 4.902-14.59 7.374-21.877 1.339-3.943 2.686-7.96 3.988-11.844 2.371-7.07 4.823-14.38 7.317-21.533l.16-.466 1.362.419-3.992 32.651.055-.02c.438-.172.787-.306 1.113-.453l10.168-4.91a9865.69 9865.69 0 0124.637-11.865c1.072-.51 2.013-1.325 2.735-2.371 1.795-2.523 3.636-5.075 5.415-7.541 2.05-2.842 4.169-5.779 6.232-8.689.918-1.3 1.915-1.691 3.228-1.272.7.226 1.422.378 2.183.54l.657.143C-36.58 31.58-31.533 16.613-26.49 1.68-17.513-24.938-8.233-52.458.826-79.433l-.034-.045-.073-.1-.047-.045a1.371 1.371 0 00-.177-.163l-92.122-61.321-13.23-8.804c-.228-.152-.456-.306-.682-.453l-.071-.047a2.62 2.62 0 01-.313-.227 2.742 2.742 0 01-.348-.387 1.094 1.094 0 01-.182-.43 1.432 1.432 0 01-.03-.277v-.151l-.025-.406.326-.158.411-.206a12.36 12.36 0 011.009-.478c.763-.31 1.539-.612 2.29-.906 1.564-.607 3.18-1.236 4.72-1.961 1.433-.679 2.617-.546 4.088.437 19.487 13.014 39.327 26.207 58.501 38.965l10.066 6.692 15.485 10.292L9.801-86.704c.655.437 1.298.885 1.921 1.322l.822.573.301.208-.075.399C12.123-80.805-31.52 48.31-32.568 49.922l-.181.276-4.18-.817zm-15.206-207.305c.091.065.187.12.286.165l3.84 1.599a703.142 703.142 0 017.77 3.256c.662.283 1.075.193 1.639-.36a332.542 332.542 0 014.267-4.076c.983-.926 1.994-1.886 2.983-2.837.464-.453.855-.802 1.17-1.089.686-.625 1.066-.97 1.16-1.287.095-.317-.01-.906-.197-1.934-.084-.452-.196-1.023-.302-1.703a454.848 454.848 0 00-1.44-8.113l-.576-3.171a1.134 1.134 0 00-.136.053 14493.245 14493.245 0 00-19.693 18.611 7.62 7.62 0 00-.67.764l-.1.122z"/></mask><path d="M48.047 196.03c-.657 0-1.296-.261-2-.788a9369.192 9369.192 0 00-34.15-25.476c-1.134-.845-1.864-1.773-2.36-3.018-11.979-29.57-24.174-59.629-35.966-88.696l-10.853-26.75c-.183-.454-.34-.907-.54-1.468-.103-.29-.215-.61-.344-.97l-.352-.932 5.275 1.039c1.308-3.34 10.609-30.485 22.708-66.282 12.27-36.302 21.184-63.057 22.24-66.74l-.5-.348c-.617-.433-1.256-.879-1.901-1.309L-10.11-98.616l-15.482-10.294-10.071-6.701c-19.176-12.774-39.013-25.967-58.504-38.981-1.205-.806-2.078-.906-3.222-.369-1.574.738-3.204 1.372-4.781 1.986a98.88 98.88 0 00-2.279.906 9.484 9.484 0 00-.938.453h-.013c.027.029.053.056.078.079.063.053.129.102.197.145l.078.054c.225.154.449.306.675.453l13.23 8.807L.968-80.771c.12.083.232.181.334.292l.05.05c.065.069.125.144.179.226.047.066.112.156.214.294l.196.256-.106.315C-7.257-52.264-16.574-24.634-25.582 2.087c-5.086 15.083-10.18 30.196-15.282 45.34l-.15.452-.407-.092a29.274 29.274 0 00-1.046-.227c-.787-.168-1.524-.326-2.265-.562-.934-.298-1.532-.054-2.206.906a1285.268 1285.268 0 01-6.236 8.696c-1.78 2.466-3.618 5.016-5.413 7.536-.822 1.191-1.895 2.12-3.117 2.7-8.217 3.935-16.563 7.966-24.634 11.863l-10.169 4.91c-.36.174-.721.315-1.18.491l-.806.29-.763.31 3.91-31.909c-2.258 6.52-4.478 13.134-6.633 19.56a3194.052 3194.052 0 01-3.988 11.849 7600.778 7600.778 0 00-7.372 21.875c-1.311 3.89-2.618 7.78-3.923 11.669l-8.077 23.956-14.787 43.847-8.607-3.532.183-.541 53.302-158.187-8.279-5.596.579-1.306 11.945 4.932-.025.428c-.197 3.295-.64 6.612-1.06 9.821-.394 3.01-.804 6.114-1.033 9.284l.077-.029c.433-.158.773-.285 1.097-.453l14.392-6.94c11.977-5.777 24.362-11.751 36.551-17.603.861-.412 1.351-1.034 1.748-2.216 4.694-13.984 9.484-28.189 14.117-41.93l3.86-11.45c3.648-10.825 7.294-21.654 10.938-32.486.25-.743.49-1.508.746-2.319.086-.276.175-.564.27-.86l-.32-.227c-.444-.33-.864-.643-1.3-.933L-33.85-91.842a117632.09 117632.09 0 01-81.398-54.217c-1.258-.838-2.218-.94-3.421-.356a23.72 23.72 0 01-6.033 2l-1.8.342 124.26-117.976.09 1.06c.22 2.624.196 5.118.175 7.531-.018 2.014-.036 3.925.082 5.843H9.51l-1.276 1.03c-.486.39-.944.766-1.377 1.132-.963.793-1.874 1.54-2.804 2.226-.913.677-1.632 1.65-2.064 2.797a4739.28 4739.28 0 01-12.933 31.266c-.5 1.193-.5 2.126 0 3.322a50516.761 50516.761 0 0131.299 74.955l.983 2.355c.35.836.713 1.413 1.449 1.71a786.117 786.117 0 019.895 4.076c1.636.678 3.274 1.353 4.916 2.027.077.027.156.045.236.054a3.739 3.739 0 00-.413-1.132c-.081-.168-.166-.342-.24-.521-4.185-10.073-8.456-20.304-12.585-30.197l-6.23-14.926c-4.931-11.822-10.028-24.046-15.082-36.053-.627-1.492-.623-2.78.014-4.302a12495.693 12495.693 0 0021.04-50.874c.655-1.67 1.7-3.098 3.017-4.124 4.45-3.515 8.949-7.131 13.298-10.627 1.81-1.451 3.618-2.903 5.426-4.355.253-.204.519-.389.824-.605.159-.111.332-.226.525-.371l.662-.476.087.906c.11 1.148-.282 1.966-.59 2.623a8.09 8.09 0 00-.224.489c-4.623 11.225-9.343 22.629-13.905 33.657l-2.984 7.215-2.93 7.09a3443.129 3443.129 0 01-8.934 21.501c-.59 1.4-.59 2.502.016 3.934 10.422 24.862 20.967 50.161 31.173 74.628l4.603 11.035c.181.437.342.87.545 1.418.104.281.218.591.352.942l.41 1.089-1.684-.536 11.515 7.726-.152.453L9.758 60.024.687 57.852l53.485-158.755-.393-.29a34.821 34.821 0 00-1.341-.955 8418.246 8418.246 0 01-10.652-7.102c-11.059-7.402-22.493-15.031-33.808-22.393-2.507-1.628-4.13-3.657-5.421-6.778-9.81-23.705-19.585-47.047-28.687-68.739-.667-1.585-.655-2.944.04-4.529 1.611-3.648 3.128-7.407 4.396-10.6.468-1.19 1.218-2.203 2.163-2.926 1.644-1.304 3.305-2.654 4.916-3.956 3.295-2.674 6.703-5.435 10.152-7.998 1.683-1.248 1.966-2.611 1.715-4.817l-.03.028c-.417.346-.786.645-1.115.967a91425.859 91425.859 0 00-22.81 21.65l-4.186 3.975-.1.099a4.034 4.034 0 01-.222.211c-4.057 3.428-7.937 7.276-11.689 10.994-2.619 2.6-5.328 5.285-8.081 7.815-4.668 4.284-9.339 8.757-13.857 13.08a1137.132 1137.132 0 01-6.03 5.754l-2.69 2.554a22781.417 22781.417 0 00-17.175 16.32c-.087.082-.17.166-.252.254l.474-.17a25.958 25.958 0 003.382-1.395c1.687-.89 2.95-.226 4.094.55 12.781 8.538 25.797 17.192 38.38 25.562l27.613 18.372 37.306 24.819c.529.35 1.042.713 1.636 1.132.293.206.604.426.94.659l.352.247-.147.453a6490.887 6490.887 0 01-10.34 30.781L7.367-41.444A32794.117 32794.117 0 01-5.242-4.002l-3.022 8.971c-3.766 11.178-7.533 22.353-11.342 33.653l-4.251 12.613 7.832 1.889L33.047-92.483-74.578-164.1l.498-.521c1.044-1.098 2.102-1.393 3.327-.929.061.023.123.048.183.075l.179.073c.434.154.873.36 1.297.557.932.437 1.811.849 2.557.711.704-.129 1.424-.922 2.12-1.69.294-.323.59-.659.908-.953 5.387-5.103 10.767-10.209 16.142-15.319l10.41-9.883c.47-.453.944-.874 1.494-1.37l.891-.808.482-.439 22.544 54.017-1.05-.344c-3.174-1.04-6.062-2.265-8.849-3.463-1.405-.597-2.733-1.164-4.097-1.709-2.867-1.133-5.766-2.353-8.57-3.524l-1.276-.532 79.785 53.1-.151.453L-6.917 55.223c.29.084.57.17.848.254.88.299 1.777.52 2.686.663 1.73.227 2.442 1.418 2.95 2.684 8.972 22.178 18.121 44.712 26.968 66.506l4.552 11.209c3.43 8.454 6.86 16.908 10.294 25.363l5.15 12.681c.067.167.136.337.197.505.422 1.032.729 1.777.965 1.884.236.106.86-.227 1.728-.661 3.21-1.638 6.417-3.279 9.624-4.921l8.876-4.529c8.944-4.57 17.891-9.137 26.84-13.7l16.817-8.585c.181-.091.358-.19.537-.29a9.527 9.527 0 011.117-.557c.692-.274.942-.734.922-1.694-.039-1.904-.027-3.85-.016-5.706v-.877c0-.514.032-1.014.061-1.546.014-.247.03-.496.042-.757l.037-.844.665.364c1.502.822 35.304 36.164 38.071 39.805l.275.363-11.954 16.601-.379-.374c-3.064-3.018-6.029-6.175-8.896-9.23-1.426-1.519-2.901-3.091-4.362-4.615-3.073-3.209-6.156-6.467-9.139-9.617-1.219-1.29-2.43-2.567-3.632-3.834-.183.136-.36.272-.533.405-.516.425-1.062.797-1.634 1.112-7.57 3.875-15.142 7.747-22.714 11.615-13.276 6.793-27.008 13.813-40.507 20.731a3.301 3.301 0 01-1.492.399zM-36.93 49.38l.012.032c.197.553.346.988.52 1.414l10.858 26.75c11.798 29.069 23.99 59.126 35.966 88.698.421 1.04 1.04 1.823 2.01 2.543a11670.67 11670.67 0 0134.154 25.48c.953.716 1.604.786 2.582.286 13.493-6.932 27.224-13.947 40.507-20.734 7.572-3.869 15.143-7.74 22.713-11.612a10.45 10.45 0 001.487-1.019c.275-.213.56-.433.875-.657l.317-.227.273.29 3.911 4.126c2.981 3.15 6.064 6.409 9.136 9.615a653.21 653.21 0 014.367 4.622c2.743 2.921 5.573 5.935 8.491 8.832l10.772-14.964c-3.876-4.663-31.974-34.103-36.823-38.619-.023.417-.043.818-.045 1.212v.878c-.012 1.859-.024 3.784.014 5.662.031 1.444-.488 2.357-1.585 2.792a9.133 9.133 0 00-1.009.505c-.187.106-.375.21-.566.308l-16.817 8.582-26.84 13.7-8.873 4.529a5761.16 5761.16 0 01-9.635 4.921c-2.487 1.27-2.784 1.132-3.98-1.773-.07-.17-.14-.342-.208-.514l-.126-.31-5.022-12.367c-3.43-8.454-6.862-16.908-10.294-25.362l-4.55-11.209a57928.64 57928.64 0 01-26.97-66.509c-.479-1.177-.984-1.888-2.164-2.038a16.834 16.834 0 01-2.835-.693 36.687 36.687 0 00-1.377-.403l-.548-.15.196-.606L43.17-96.58l-81.74-54.376.59-1.436c-.833.811-1.614.974-2.607.548a853.158 853.158 0 00-7.76-3.254l-3.842-1.598a3.134 3.134 0 01-.538-.315l-.156-.104-.218-.136-.035-.283c0-.05-.012-.091-.018-.127a1.584 1.584 0 01-.024-.283.921.921 0 01.177-.58c.079-.095.158-.192.234-.29.24-.308.496-.598.77-.867 6.449-6.114 13.08-12.376 19.706-18.623.167-.14.36-.237.562-.283.107-.034.236-.075.394-.139l.527-.203.112.625c.228 1.271.457 2.525.686 3.761.511 2.794.997 5.435 1.441 8.134.11.668.215 1.23.3 1.678.477 2.57.416 2.774-1.308 4.346-.311.283-.698.636-1.15 1.071-.994.953-2.008 1.913-2.99 2.842a367.709 367.709 0 00-4.241 4.055l.405.168 3.762 1.565c2.8 1.168 5.702 2.378 8.555 3.519 1.377.548 2.769 1.132 4.116 1.716 2.462 1.051 4.998 2.131 7.728 3.08l-21.054-50.462-.411.371c-.545.492-1.015.917-1.477 1.359-3.47 3.293-6.94 6.587-10.408 9.882a16295.078 16295.078 0 01-16.14 15.32c-.28.267-.56.573-.853.905-.806.888-1.638 1.812-2.645 1.991-1.007.179-2.069-.304-3.085-.779-.423-.199-.822-.387-1.215-.525-.079-.028-.156-.062-.232-.093l-.148-.061a1.761 1.761 0 00-.925-.149 1.838 1.838 0 00-.882.352l107.136 71.29-.152.452L-15.41 54.451l-9.784-2.36 4.672-13.858c3.809-11.3 7.574-22.475 11.34-33.653l3.024-8.972c4.204-12.479 8.407-24.96 12.608-37.441a6026.66 6026.66 0 015.339-15.831c3.353-9.926 6.817-20.184 10.192-30.345l-.59-.419c-.59-.414-1.095-.772-1.615-1.116l-37.305-24.819-27.614-18.372c-12.585-8.378-25.596-17.024-38.382-25.564-1.21-.808-2.037-1.107-3.19-.498a26.67 26.67 0 01-3.5 1.445c-.497.179-1.01.362-1.507.557l-.343.131-.731-1.152.313-.342.336-.381c.25-.285.51-.579.786-.849 5.723-5.444 11.448-10.885 17.177-16.322l2.69-2.553c2.013-1.913 4.052-3.865 6.026-5.754 4.523-4.327 9.195-8.799 13.871-13.093 2.74-2.516 5.441-5.195 8.062-7.788 3.766-3.731 7.66-7.592 11.747-11.048.053-.045.105-.097.154-.147l.126-.125 4.186-3.974c7.603-7.219 15.207-14.436 22.81-21.651.364-.342.733-.652 1.162-1.01l.673-.566.633-.543.143.894c.403 2.534.553 4.964-2.023 6.873-3.431 2.545-6.831 5.303-10.119 7.971a668.512 668.512 0 01-4.916 3.965c-.798.607-1.43 1.461-1.827 2.464-1.274 3.204-2.794 6.974-4.412 10.643-.557 1.259-.565 2.246-.034 3.517 9.099 21.691 18.877 45.036 28.686 68.75 1.197 2.894 2.697 4.773 5.016 6.279 11.32 7.358 22.757 14.989 33.821 22.369 3.549 2.369 7.099 4.736 10.65 7.101.458.306.905.635 1.377.981.232.172.476.351.733.537l.344.249-.147.435L2.018 56.989l7.12 1.706L64.317-105.03 51.16-113.86l.57-1.295 2.257.72a33.245 33.245 0 00-.476-1.237l-4.603-11.032c-10.203-24.457-20.757-49.767-31.173-74.629-.727-1.739-.731-3.209-.013-4.919 3.006-7.147 6.017-14.44 8.929-21.494l2.93-7.091 2.985-7.214c4.564-11.028 9.28-22.432 13.904-33.655.078-.19.167-.374.254-.553.156-.298.287-.611.393-.937-.17.12-.319.226-.464.348-1.81 1.45-3.617 2.901-5.423 4.355-4.354 3.499-8.85 7.115-13.307 10.632-1.175.903-2.107 2.167-2.692 3.648a13583.95 13583.95 0 01-21.04 50.879c-.513 1.232-.517 2.133-.016 3.326 5.05 12.002 10.15 24.23 15.084 36.058l6.23 14.923c4.13 9.896 8.402 20.127 12.584 30.199.061.148.134.299.213.453.3.625.678 1.402.513 2.426l-.087.536-.468-.079c-.123-.023-.231-.034-.334-.048a2.303 2.303 0 01-.637-.135l-4.916-2.038a1727.12 1727.12 0 00-9.887-4.061c-1.114-.453-1.626-1.358-2.01-2.289l-.982-2.353a62419.091 62419.091 0 00-31.297-74.955c-.633-1.51-.633-2.797 0-4.302 3.942-9.43 8.05-19.362 12.929-31.251.51-1.336 1.349-2.471 2.412-3.265a76.065 76.065 0 002.765-2.194l.128-.104h-9.216l-.038-.519c-.159-2.147-.141-4.246-.122-6.467.02-2.038.038-4.16-.094-6.341l-119.897 113.827a22.906 22.906 0 003.901-1.481c1.487-.72 2.773-.595 4.295.422a90845.842 90845.842 0 0081.407 54.214l22.904 15.247c.457.303.885.623 1.341.962.213.157.427.317.645.476l.337.244-.136.428c-.144.453-.277.877-.405 1.284a124.95 124.95 0 01-.751 2.342A61157.537 61157.537 0 01-20.36-39.36l-3.862 11.449a33427.639 33427.639 0 00-14.117 41.927c-.491 1.467-1.18 2.321-2.286 2.856a18907.972 18907.972 0 00-36.55 17.6l-14.391 6.94c-.362.177-.74.315-1.18.476-.23.086-.482.178-.767.29l-.7.273.053-.849c.215-3.494.663-6.906 1.098-10.206.418-3.186.814-6.205 1.022-9.305l-7.8-3.22 5.808 3.927-53.424 158.542 6.754 2.772 14.441-42.822c2.694-7.985 5.386-15.97 8.076-23.956 1.311-3.889 2.619-7.779 3.923-11.669 2.411-7.174 4.902-14.59 7.374-21.877 1.339-3.943 2.686-7.96 3.988-11.844 2.371-7.07 4.823-14.38 7.317-21.533l.16-.466 1.362.419-3.992 32.651.055-.02c.438-.172.787-.306 1.113-.453l10.168-4.91a9865.69 9865.69 0 0124.637-11.865c1.072-.51 2.013-1.325 2.735-2.371 1.795-2.523 3.636-5.075 5.415-7.541 2.05-2.842 4.169-5.779 6.232-8.689.918-1.3 1.915-1.691 3.228-1.272.7.226 1.422.378 2.183.54l.657.143C-36.58 31.58-31.533 16.613-26.49 1.68-17.513-24.938-8.233-52.458.826-79.433l-.034-.045-.073-.1-.047-.045a1.371 1.371 0 00-.177-.163l-92.122-61.321-13.23-8.804c-.228-.152-.456-.306-.682-.453l-.071-.047a2.62 2.62 0 01-.313-.227 2.742 2.742 0 01-.348-.387 1.094 1.094 0 01-.182-.43 1.432 1.432 0 01-.03-.277v-.151l-.025-.406.326-.158.411-.206a12.36 12.36 0 011.009-.478c.763-.31 1.539-.612 2.29-.906 1.564-.607 3.18-1.236 4.72-1.961 1.433-.679 2.617-.546 4.088.437 19.487 13.014 39.327 26.207 58.501 38.965l10.066 6.692 15.485 10.292L9.801-86.704c.655.437 1.298.885 1.921 1.322l.822.573.301.208-.075.399C12.123-80.805-31.52 48.31-32.568 49.922l-.181.276-4.18-.817zm-15.206-207.305c.091.065.187.12.286.165l3.84 1.599a703.142 703.142 0 017.77 3.256c.662.283 1.075.193 1.639-.36a332.542 332.542 0 014.267-4.076c.983-.926 1.994-1.886 2.983-2.837.464-.453.855-.802 1.17-1.089.686-.625 1.066-.97 1.16-1.287.095-.317-.01-.906-.197-1.934-.084-.452-.196-1.023-.302-1.703a454.848 454.848 0 00-1.44-8.113l-.576-3.171a1.134 1.134 0 00-.136.053 14493.245 14493.245 0 00-19.693 18.611 7.62 7.62 0 00-.67.764l-.1.122z" stroke="#fff" stroke-width="2" mask="url(#g)"/><path d="M33.756 46.896l.006.039 1.04.975.171.159c.126.115.25.23.363.344l.006.007h0l2.567 2.726s0 0 0 0l1.944 2.054c5.059 5.343 10.241 10.818 15.328 16.256 1.08 1.15 2.123 1.763 3.385 2.036 1.477.319 2.971.68 4.435 1.034l1.38.332h.002c1.808.444 3.684.901 5.53 1.304h.003c.704.157 1.284.415 1.765.85.477.431.82 1.004 1.11 1.725h0c4.165 10.44 8.453 21.015 12.609 31.266l.312.77c1.12 2.757 2.24 5.517 3.357 8.279l-.464.187.464-.187c.164.406.341.803.547 1.263l.055.124-55.915-71.543zm0 0c.167.146.316.28.455.404l.193.172h0l.004.003.004.004c.362.315.627.545.869.802v.001l2.57 2.715h0l.404.427c5.542 5.857 11.259 11.9 16.862 17.878.93 1.053 2.12 1.772 3.422 2.054h0c1.489.32 2.987.68 4.465 1.037.452.108.901.217 1.348.323l-30.596-25.82zm2.272 19.853c.09.27.195.547.313.84v.001a79860.238 79860.238 0 0122.703 56.106l8.99 22.229-32.006-79.176zm0 0c.1.316.22.629.347.943a79148.77 79148.77 0 0122.704 56.104l8.99 22.229-32.041-79.276zM69.55 147.77l-.16.058-.431.155-.192-.415-.134-.289v-.002a28.288 28.288 0 01-.599-1.352l1.516 1.845zm0 0l.005-.001a8.83 8.83 0 001-.406h0l.012-.006 12.781-6.544h0c9.757-4.999 19.848-10.168 29.781-15.223m-43.579 22.18l43.579-22.18m0 0c.516-.262.922-.576 1.177-1.046.056-.102.103-.209.142-.32a2.45 2.45 0 01-.188.447c-.234.428-.605.774-1.18 1.066h0a13680.995 13680.995 0 00-29.783 15.225l-12.776 6.541a8.32 8.32 0 01-.987.403h0l-.013.004c-.16.058-.335.121-.517.192l-.003-.005v-.001c-.111-.246-.22-.48-.326-.707l-.017-.036c-.215-.463-.412-.888-.59-1.328l45.061-20.435zm1.297-18.726a1.646 1.646 0 01-.005-.07v-.001l-.003-.043-23.927 12.209-.47.24-.214-.483-.175-.394v-.001l-.03-.067c-.21-.47-.396-.89-.566-1.311l-3.357-8.278h0l-.656-1.62c-4.049-9.989-8.216-20.271-12.266-30.42-.324-.812-.691-1.377-1.137-1.778-.441-.398-.992-.663-1.732-.825h-.002l.107-.49 44.433 33.332zm0 0l-.66.336-23.713 12.102m24.373-12.438l-24.374 12.438m0 0a135.16 135.16 0 00-.382-.862l.382.862zM35.965 63.637a4.668 4.668 0 01.016-.043h0l-.016.043zm53.99 55.716h0l-.356.156.356-.156zM174.789 108.335l.399.415-.048.029-37.803-39.27.019-.054.507.527 36.926 38.353zm-36.514-39.197l-.782-.082.046-.135 41.99 4.372-.007.076s0 0 0 0l-.006.063-.487-.05-40.754-4.244zM152.152 445.062l.399-.064.368-.058-.767.122zm0 0V444.944h.001c.289-.04.553-.081.796-.119l.003-.001c.502-.082.907-.145 1.322-.166 4.241-.216 8.482-.427 12.723-.634 5.81-.285 11.816-.582 17.725-.888 6.14-.318 12.372-.652 18.445-.976l1.972-.106h0c6.091-.329 12.184-.653 18.277-.973 0 0 0 0 0 0l-.026-.5m-71.238 4.481l93.462-5.077-.024-.5m-22.2 1.096c4.559-.237 9.2-.462 13.712-.682l1.062-.051 7.426-.363m-22.2 1.096c-6.094.32-12.186.645-18.278.974l18.278-.974zm22.2-1.096c1.039-.049 2.079-.106 3.118-.16l-3.118.16zm-94.257 15.655l-.008-.002-.008-.002a7.259 7.259 0 01-.886-.277l-.005-.002-3.242-1.337h0c-5.361-2.206-10.904-4.489-16.335-6.787a6.898 6.898 0 01-2.394-1.846l-.004-.005c-2.861-3.31-5.739-6.709-8.523-9.999h0a6716.96 6716.96 0 00-3.585-4.23h0l-11.595-13.643c-14.273-16.796-29.029-34.161-43.533-51.253h0l-.009-.01a9.926 9.926 0 01-1.633-2.529c-1.94-4.61-3.896-9.286-5.814-13.871l-1.393-3.329a7836.928 7836.928 0 00-7.64-18.244h0a5.12 5.12 0 01-.16-.428 5.2 5.2 0 00.124.321c2.264 5.379 4.548 10.844 6.777 16.178l.863 2.065h0l1.42 3.398c1.911 4.57 3.858 9.226 5.789 13.81l.002.007.003.006a9.76 9.76 0 001.617 2.486c12.825 15.114 25.85 30.442 38.56 45.401l4.967 5.847.381-.324-.381.324 11.595 13.643h0l3.586 4.231c2.782 3.286 5.661 6.686 8.521 9.995a6.877 6.877 0 002.389 1.849l.007.003.006.003c5.435 2.308 10.981 4.591 16.334 6.794l3.253 1.34v.001l.011.004a7.655 7.655 0 00.905.284l.072.018.46.12a5.429 5.429 0 01-.041.117 6.426 6.426 0 00-.156-.045l-.297-.082zM44.755 324.497c6.472-15.564 12.934-31.18 18.952-45.736 2.556-6.158 5.472-13.434 8.336-20.579l.67-1.674c2.898-7.227 5.892-14.692 8.499-21.022l.007.004c-2.618 6.351-5.628 13.857-8.54 21.122l-.29.72c-2.988 7.453-6.057 15.107-8.716 21.533h0A22200.934 22200.934 0 0144.716 324.6h0a6.59 6.59 0 00-.077.191 6.31 6.31 0 01.114-.294h0zm107.402 127.116l-.001-.022c-.019-.514-.039-1.02-.018-1.511 0 0 0 0 0 0s0 0 0 0v-.002c.043-1.113.034-2.226.024-3.388v-.043-.002-.008l-.005 4.976zm138.81-142.05c-2.233-1.495-4.515-3.024-6.764-4.518a2.179 2.179 0 00-.819-.367l-.188-.041-.167.096c-.31.179-.56.242-.762.247-.2.005-.383-.046-.562-.141-.355-.189-.656-.529-.967-.903l.032-.037c.117.139.231.268.342.382.162.164.342.319.55.425.22.111.46.163.723.133.252-.028.493-.128.73-.268l.009-.006c.043-.027.123-.055.29-.018.175.039.413.144.717.345 2.753 1.829 5.558 3.708 8.261 5.523v.001l2.289 1.533v.106l-.199-.133-2.023-1.359h0l-1.492-1zm3.714 39.092v.086l-.019.016a1.07 1.07 0 01-.099.075l-.022.014-.129.079a.364.364 0 01.101-.138l.168-.132zM152.14 446.643l-.478.004.478-.004zM254.607 318.424a641.368 641.368 0 008.576-4.248v-.001l.122-.06c4.661-2.336 9.48-4.751 14.33-6.932l.912-.41.008-.044.001-.004.014-.08c-5.186 2.298-10.336 4.881-15.33 7.386h0a808.451 808.451 0 01-8.317 4.122l-.338.165-.252-.279-.41-.454h-.001l-.129-.144a60.292 60.292 0 01-1.201-1.361l-4.032-4.75h0l-.078-.092c-5.51-6.488-11.204-13.193-16.77-19.831v-.001l.383-.321a14.65 14.65 0 01-2.257-3.696l24.769 31.035zm0 0l-.622-.692-.002-.001c-.466-.515-.9-.997-1.332-1.505l-4.032-4.75h0a4297.26 4297.26 0 01-16.848-19.923v-.001a15.295 15.295 0 01-2.358-3.864c-1.62-3.85-4.377-7.78-7.643-11.699-3.259-3.911-7.048-7.837-10.759-11.683l-.031-.032-.001-.001c-3.777-3.912-7.603-7.876-10.892-11.834-3.172-3.819-5.824-7.609-7.446-11.314l.009-.005m-42.661 184.282l-.007-.008a4028.76 4028.76 0 00-11.728-13.855l-.901-1.062h-.001l-.562-.662c-16.089-18.95-32.178-37.899-48.268-56.847l-25.759-30.334-.004-.005-.32-.387h0l-.003-.004c-.16-.193-.325-.392-.495-.586l-.01-.01-.01-.01a1.586 1.586 0 01-.397-.733c.07.231.196.444.373.613.162.185.321.377.483.574v.001c.106.129.214.258.323.385l25.76 30.341.381-.324-.381.324 48.267 56.844v.001l.563.664h0c4.145 4.88 8.429 9.928 12.627 14.911.395.491.764 1.01 1.103 1.554h0l.006.01.103.156.436.667-.02.029c-.15-.218-.294-.44-.445-.671l-.018-.028-.003-.004a15.761 15.761 0 00-1.093-1.544h0zM61.631 319.749a1.307 1.307 0 00-.052.108c.02-.056.043-.11.069-.162l.005-.011.005-.011c.15-.349.295-.704.435-1.051l.036-.089.001-.002.02-.046a50.68 50.68 0 01-.519 1.264zm.626-1.524c.055-.132.11-.268.16-.4l4.723-11.423c8.945-21.616 17.885-43.239 26.822-64.869.273-.66 4.88-13.017 5.882-15.769l.003.001c-.93 2.56-5.65 15.223-5.92 15.873h0c-8.937 21.626-17.878 43.249-26.821 64.869h0l-4.723 11.425-.001.002-.06.142-.065.149zm89.793 109.002v-.15c.133-.029.264-.06.393-.091h0l.013-.003a7.04 7.04 0 011.266-.222c4.861-.258 9.722-.51 14.583-.755h.001c4.048-.208 8.096-.418 12.143-.628h.001c8.662-.453 17.321-.913 25.976-1.378l13.534-.719h.002l2.715-.154h.001c2.401-.141 4.872-.286 7.307-.335.606-.012 1.13-.125 1.572-.461.432-.329.72-.821.97-1.439h0a15375.952 15375.952 0 0115.33-37.834 153695.38 153695.38 0 0029.8-73.415c.19-.452.362-.915.515-1.386-.156.506-.338 1-.545 1.481h0l-.004.01c-8.468 20.859-16.938 41.726-25.409 62.599h0a13643.55 13643.55 0 01-4.392 10.817l.464.188-.464-.188a16660.366 16660.366 0 00-15.329 37.834v.001c-.297.738-.625 1.202-1.005 1.49-.371.282-.843.432-1.506.446h0c-2.385.049-4.81.189-7.149.324l-.164.01-.669.039c-.683.039-1.364.079-2.047.115h-.001l-13.535.721.027.499-.027-.499c-8.662.462-17.32.922-25.975 1.378-4.047.213-8.095.422-12.144.626h0c-4.856.249-9.72.501-14.591.755l-.011.001-.011.001a7.438 7.438 0 00-1.285.24l-.35.082zM160.749 459.442h0l.063.022c1.336.482 2.756.994 4.058 1.704m-4.121-1.726l3.882 2.165m-3.882-2.165l-.498-.179-.006-.002a13.765 13.765 0 00-3.057-.801l-.01-.001a335.374 335.374 0 00-6.85-.737l-.159-.016c-.993-.099-1.986-.2-2.98-.303l-5.352-.557c-5.919-.615-11.838-1.234-17.756-1.855-7.512-.792-15.149-1.608-22.535-2.397l-.083-.009-.054.497.053-.497m59.287 6.857l-59.287-6.857m63.408 8.583l-.239.439m.239-.439s0 0 0 0l-.239.439m.239-.439c2.365 1.286 4.771 1.623 7.126 1.623.685 0 1.366-.029 2.058-.06m-9.423-1.124c2.464 1.34 4.961 1.684 7.365 1.684.699 0 1.391-.029 2.084-.061m-.026-.499h-.004l.03.499m-.026-.499c7.37-.451 14.867-.832 22.124-1.201l.425-.022h.001c3.16-.156 6.317-.319 9.473-.486h0l19.101-1.007.026.499m-51.15 2.217l.003-.001.023.5m0 0l51.124-2.716m0 0c-6.366.337-12.733.672-19.101 1.007-3.156.168-6.314.33-9.474.487l28.575-1.494zm0 0l20.985-1.104 2.914-.154 1.673-.089c4.825-.256 9.778-.518 14.659-.721 1.151-.032 2.256-.527 3.123-1.399 3.572-3.403 7.206-6.849 10.741-10.202l.825-.783m-54.92 14.452l-19.152-.127m19.152.127l-.026-.499 20.984-1.104 2.914-.154 1.672-.089c4.825-.256 9.782-.519 14.666-.722h.007c1.014-.028 2-.463 2.782-1.251l.01-.01c3.57-3.401 7.201-6.845 10.734-10.195l.833-.791.344.363m-54.92 14.452l69.069-29.17m-88.221 29.043c-3.157.163-6.316.326-9.475.487-7.394.373-15.039.769-22.558 1.222m32.033-1.709l-45.174-1.547a29.504 29.504 0 014.178 1.751c2.983 1.623 6.071 1.682 8.963 1.505m32.033-1.709l19.099-1.007 20.984-1.106 2.915-.154c5.358-.283 10.897-.575 16.35-.81m-91.381 4.786l.031.499h-.001c-2.912.178-6.116.128-9.226-1.561m9.196 1.062l-9.196-1.062m-108.035-4.009c.166-.159.319-.301.465-.437a9.21 9.21 0 00.826-.831m-1.29 1.268l8.102-7.797c-.946-.102-1.574.172-2.184.948-1.204 1.544-2.477 3.045-3.714 4.502l-.097.115-.817.964m-1.29 1.268l-.088.083m.087-.083l-.087.083m1.378-1.351l-.382-.323.003-.003m.38.326l-.377-.329.811-.958h0l.095-.112c1.239-1.46 2.506-2.954 3.704-4.489l.001-.001c.339-.431.71-.758 1.16-.953.452-.197.937-.241 1.47-.184h.002c3.05.335 6.147.649 9.148.953M57.7 455.431l16.343-5.25m-16.343 5.25a8.738 8.738 0 01-.778.782h0l-.01.009-.043.04c-.121.113-.25.233-.387.364m1.218-1.195l-2.231-1.075-24.493-58.613-11.072-26.498h0a22246.525 22246.525 0 00-19.48-46.559m73.67 126.998l-.001-.001-.05.498m.05-.497l-.05.497m.05-.497c2.116.209 4.224.425 6.323.647m-6.373-.15c2.115.21 4.222.426 6.32.647m.053-.497s0 0 0 0l-.052.497m.052-.497c3.24.34 6.516.692 9.737 1.039l2.246.242h0c2.468.267 4.935.532 7.402.794h0l1.661.179m-21.046-2.254l-.052.497m0 0l21.098 1.757m-44.98 4.041l-.359-.783v-.002a40.851 40.851 0 01-.62-1.379m.979 2.164l.007.016v.001l.061.133.002.004.15.328m-.22-.482l-.04.038-.001.001-.001.001-.34.328-.066-.144-.365-.799 1.032 1.057m-1.197-2.646c-8.166-19.532-16.33-39.069-24.492-58.613l-.462.193m24.954 58.42s0 0 0 0l-.461.193m.46-.193l-.46.193M30.55 396.042l.462-.193-11.071-26.498-.022-.052A28892.548 28892.548 0 00.46 322.792h0a8.686 8.686 0 01-.221-.585m30.312 73.835c8.162 19.544 16.327 39.081 24.493 58.613M30.55 396.042l-11.07-26.499-.02-.045C13.09 354.246 6.503 338.477 0 322.985c-.748-1.778-.76-3.2-.043-4.906A5950.039 5950.039 0 0011.61 290.04l.392-.949c1.544-3.738 3.091-7.477 4.642-11.215M.238 322.207c.055.157.117.316.185.479m-.185-.479a5.447 5.447 0 01-.31-1.706c-.005-.579.098-1.16.32-1.792m-.01 3.498c-.207-.586-.32-1.138-.328-1.696-.007-.602.11-1.185.338-1.802m.175 3.977s0 0 0 0l.461-.194m-.46.194l.46-.194m0 0c-.616-1.464-.633-2.528-.043-3.922m.043 3.922c6.516 15.509 13.11 31.296 19.481 46.56l11.073 26.499L.84 318.57m0 0l-.461-.193v-.001m.461.194l-.46-.195v.001m.46.194a5399.676 5399.676 0 0010.386-24.977l1.663-4.015M.84 318.57l18.003-44.705M58.192 454.01l-.816.967a9.097 9.097 0 01-.362.382l.064.142.004.008-.436.196-.01.009h-.01a.518.518 0 01-.01-.023l-.129-.145v-.001l-.182-.205.105-.095-.94-.888c.17.407.353.807.557 1.252l.056.121.004.009.083.18.133.295h.523l.14-.125c.275-.243.536-.503.783-.78h0l.009-.01.816-.965-.382-.324zm0 0c1.26-1.484 2.558-3.021 3.786-4.585l-3.404 4.908m-.382-.323l.382.323m0 0c1.259-1.484 2.563-3.027 3.797-4.599l.001-.001c.372-.476.747-.779 1.145-.953.396-.174.852-.236 1.413-.175 3.049.335 6.152.65 9.15.953 2.107.213 4.215.429 6.324.647m-21.83 4.128l21.83-4.128m0 0l.051-.497-.051.497zM.248 318.709a7.6 7.6 0 01.169-.436h0c3.913-9.326 7.843-18.828 11.655-28.041l.392-.949v-.001c1.544-3.738 3.091-7.476 4.642-11.215h0c.585-1.41 1.164-2.811 1.738-4.202M.248 318.709c.04-.11.085-.221.132-.333m18.464-44.511l-1.774 4.306m1.774-4.306c1.297-3.14 2.568-6.232 3.813-9.274m-3.813 9.274c1.295-3.142 2.565-6.233 3.813-9.274m-3.813 9.274l-2.2 4.011M.38 318.376c3.482-8.294 6.973-16.73 10.385-24.974l1.662-4.015m0 0l.463.191m-.463-.191s0 0 0 0l.463.191m-.463-.191c1.546-3.739 3.093-7.477 4.643-11.216m-4.18 11.407c1.545-3.739 3.092-7.477 4.642-11.216m0 0l-.463-.19v-.001m.463.191c2.598-6.299 5.106-12.4 7.522-18.303m-7.522 18.303l-.462-.191s0 0 0 0m7.984-18.112l-.463-.189s0 0 0 0m.463.189a2918.945 2918.945 0 017.85-19.094m-7.85 19.094l-.462-.19v.001m-1.935 4.721l1.934-4.721m-1.934 4.721c.663-1.622 1.32-3.231 1.969-4.826m-.035.105c.674-1.655 1.355-3.325 2.044-5.009m6.269-13.896l-.24.438-.394-.215m.634-.223l-.447-.245-.192.465m.639-.22l-.462-.192-.172.415m-5.635 13.673c1.293-3.152 2.61-6.355 3.952-9.611m-3.952 9.611c1.29-3.153 2.607-6.356 3.952-9.611m-3.952 9.611a6250.86 6250.86 0 00-2.01 4.904m5.962-14.515c.556-1.345 1.117-2.699 1.683-4.062m-1.683 4.062a7177.96 7177.96 0 011.678-4.065m.005.003l-.005-.003m0 0l-.441-.242c-2.647 6.408-5.2 12.619-7.661 18.634m.463.188s0 0 0 0l-.463-.188m.463.188v.001l-.463-.189m0 0a3097.723 3097.723 0 01-7.519 18.299m0 0l38.399 176.779m109.78 6.379a29.003 29.003 0 00-4.102-1.72l-.012-.004h0l-.508-.183-.011-.004h0a13.572 13.572 0 00-3.032-.79 317.133 317.133 0 00-7.004-.752h0c-.994-.098-1.987-.199-2.98-.304l-5.352-.556a8902.564 8902.564 0 01-17.757-1.856c-7.539-.794-15.206-1.614-22.616-2.406h-.001m63.375 8.575l-73.515-10.167 1.13.122m9.01 1.47l.053-.497m-.053.497l-1.662-.176h0l-7.401-.797.053-.497m9.01 1.47l-9.01-1.47m9.063.973l-1.662-.176-7.401-.797m9.063.973c7.411.792 15.077 1.611 22.616 2.406 5.919.624 11.838 1.243 17.757 1.855l-40.373-4.261zm178.623-5.9c4.316-4.089 8.779-8.321 13.155-12.499m-13.155 12.499l-.344-.363c4.313-4.087 8.773-8.316 13.146-12.49m.353.354a9.407 9.407 0 001.364-1.81c.183-.29.356-.564.539-.826m-1.903 2.636l-.345-.361-.008.007m.353.354l-.359-.347a.043.043 0 01.006-.007m2.256-2.282l-.394-.367c-.096.137-.189.278-.282.421m.676-.054l-.411-.286c-.082.119-.163.239-.242.361m.653-.075l-.341.366-.312-.291m-.023-.021l-.372-.346c-.087.134-.173.269-.257.402l-.031.048m.66-.104l-.233.363m.233-.363l.023.021m-.683.083a8.383 8.383 0 01-1.195 1.609 4876.151 4876.151 0 01-13.152 12.497l-.655.621c-3.589 3.404-7.284 6.908-10.914 10.366m25.916-25.093l.421.269.006-.01m-.427-.259l.433.249-.006.01m-26.343 24.834c-.7.711-1.597 1.112-2.53 1.132m2.53-1.132l.345.362.006-.005a.027.027 0 00.005-.006l-.356-.351zm-2.53 1.132l.01.5.007-.001h.004l-.021-.499zm29.129-26.308c-.104.159-.206.321-.309.484l-.005.008-.005.008a8.851 8.851 0 01-1.284 1.707" stroke="#fff"/><path d="M206.507 478.273h.001c1.496.836 3.082 1.044 4.579 1.044.386 0 .764-.013 1.129-.038h.006c10.579-.579 21.334-1.136 31.747-1.675l.474-.024 11-.572h.001l3.187-.17h.001c.704-.036 1.417-.075 2.134-.113 1.494-.08 3.007-.161 4.501-.226h.004c1.087-.038 2.142-.513 2.979-1.362l.009-.009a2313.684 2313.684 0 0115.61-14.89l.344.363-.344-.363c2.524-2.388 5.103-4.797 7.596-7.125l3.059-2.858-.04-.057c-.985.916-1.97 1.838-2.955 2.765l-.002.001a1611.34 1611.34 0 00-7.594 7.122 2317.874 2317.874 0 00-15.604 14.885c-.834.855-1.914 1.355-3.057 1.393m-58.765 1.909l-104.829-12.567a19870.477 19870.477 0 0057.812 6.151c7.65.804 15.3 1.603 22.95 2.399l-.052.497h.001l17.973 1.876.026.003h.062l.065.007c2.062.225 4.074.445 5.937 1.482 1.939 1.082 3.969 1.121 5.779 1.022 10.607-.58 21.39-1.139 31.831-1.679l.39-.02 10.999-.57h.001l3.185-.172.595-.033c1.99-.108 4.03-.218 6.04-.305m-58.765 1.909c-1.919-1.069-3.969-1.284-6.014-1.498l-.056-.006-.026-.002h-.063a22293.06 22293.06 0 00-17.948-1.874l-22.95-2.398a21491.078 21491.078 0 01-57.811-6.151h0c-5.72-.618-11.441-1.233-17.162-1.847h0l-10.675-1.135h0c-6.32-.669-12.854-1.361-19.28-2.065h-.001c-.577-.062-1.095-.022-1.576.178-.48.199-.876.538-1.243.992l.388.315-.389-.315c-.921 1.138-1.898 2.197-2.943 3.33l-.03.033v.001l-.315.342c-.337.365-.68.738-1.029 1.12a29.36 29.36 0 00-.24-.464 18.23 18.23 0 01-.56-1.149c-14.37-34.464-28.734-68.929-43.093-103.395h0c-1.428-3.426-2.855-6.853-4.281-10.28v-.001l-.818-1.965c-4.002-9.614-8.12-19.505-12.212-29.223h0a8.12 8.12 0 01-.192-.499c.046.129.098.259.153.392h0c4.292 10.198 8.617 20.584 12.806 30.645l.227.545h0l2.14 5.139 2.142 5.139h0A527856.24 527856.24 0 0046.55 465.572c.147.354.327.699.49 1.014l.33.635.483-.529c.314-.344.625-.682.932-1.014l.002-.001.173-.189c.977-1.062 1.916-2.083 2.798-3.172m154.749 15.957L51.758 462.316m213.514 14.048h-.003l-.016-.5m.019.5h.003l-.022-.5m0 0c-2.014.087-4.058.198-6.048.306l-.595.032-3.185.173m9.828-.511c1.007-.032 1.972-.474 2.723-1.248a2341.342 2341.342 0 0115.613-14.893l-28.164 16.652m0 0l-10.999.569-.375.02c-10.446.541-21.235 1.099-31.847 1.68-1.79.097-3.699.05-5.509-.96-1.952-1.086-4.053-1.316-6.088-1.538l54.818.229zM51.758 462.316c.404-.498.8-.81 1.222-.987.422-.177.909-.238 1.523-.17h0c6.084.666 12.264 1.32 18.274 1.956l1.01.107h0l-22.029-.906zm-65.597-145.825c9.694-23.373 19.5-47.163 28.984-70.176l.007.003-1.156 2.804a33638.458 33638.458 0 01-27.87 67.474h0a7.755 7.755 0 00-.201.542c.065-.209.143-.424.236-.647zM152.453 370.834l.292-.298.001-.001.065-.066c.881-.897 1.725-1.756 2.709-2.274 3.468-1.806 7.023-3.578 10.459-5.288 1.449-.72 2.898-1.442 4.346-2.166h.001c.267-.134.541-.286.821-.441.165-.091.331-.183.499-.273l.006-.004.187-.104.515-.285-.364-.462-.111-.139v-.001l-.033-.042c-.309-.392-.586-.744-.869-1.078h-.001l-30.174-35.345-.381.325.381-.325a233806.25 233806.25 0 01-31.51-36.909h0l-.003-.004-.506-.579-.001-.002c-.685-.778-.884-1.112-.911-1.449-.014-.172.015-.384.115-.702.101-.322.262-.714.486-1.247l.001-.002.134-.323 43.846 89.484zm0 0c-.093.096-.168.263-.21.531a5.646 5.646 0 00-.043.862v.17a191.475 191.475 0 00.001.012v-.198c.001-.127.002-.324.012-.505.005-.096.013-.199.027-.291.006-.046.016-.097.029-.147a.715.715 0 01.081-.197l.029-.046.038-.04.296-.305h.001l.026-.027c.812-.835 1.723-1.772 2.75-2.312h.001c3.467-1.816 7.026-3.584 10.46-5.29l.004-.001v-.001a974.277 974.277 0 004.343-2.164c.425-.214.836-.443 1.325-.718h.001l.145-.081c.196-.11.407-.228.632-.35l.002-.001.071-.04-.08-.099-.003-.003-.546-.693v-.001a36.975 36.975 0 00-.908-1.115l-.001-.001-30.174-35.344-31.509-36.91-.001-.001c-.151-.178-.289-.335-.416-.48l-.092-.105c-.222-.252-.418-.473-.559-.66-.124-.163-.285-.395-.31-.655m44.578 87.206l-27.88-128.166m0 0c-.134.358-.26.7-.382 1.034h0a52.173 52.173 0 01-.746 1.948h0a31173.657 31173.657 0 01-14.838 35.7l15.966-38.682zm0 0v-.001l2.082-5.484.009.004-2.109 5.59v.002c-.132.353-.259.694-.38 1.028l-.117.314a44.173 44.173 0 01-.634 1.642v.001a33373.166 33373.166 0 01-14.835 35.698v.001l-.136.325.461.193-.461-.193c-.168.402-.315.754-.417 1.037-.05.142-.094.278-.123.402a1.253 1.253 0 00-.038.401m0 0v-.002l.498-.047-.498.049zm44.179 96.706a12.013 12.013 0 01-.393-.401 74.292 74.292 0 01-1.085-1.186 435.201 435.201 0 01-3.611-4.084 2423.123 2423.123 0 01-10.725-12.36 7877.17 7877.17 0 01-17.671-20.557h0a6658.497 6658.497 0 01-22.414-26.291 1618.191 1618.191 0 01-7.867-9.342 295.484 295.484 0 01-2.359-2.857c-.588-.725-.919-1.151-.998-1.278h0l-.032-.051.025-.059.001-.003 25.292-60.812.01.005-25.2 60.584-.11.266.174.229c3.794 4.978 59.34 69.84 66.196 77.33l.769.84-.002.027zm.135-1.83c-.008.361-.03.72-.067 1.078l.032-.413a9.64 9.64 0 00.034-.668V375.765v-1.217l.001 1.22V378.504zm-43.07-93.892l.092.105c.127.145.268.306.422.488l31.509 36.909-32.023-37.502z" stroke="#fff"/><path d="M65.974 445.266l-.284-.582-.073-.147c-.235-.48-.435-.895-.611-1.309-6.848-16.449-13.692-32.899-20.532-49.35h0a59436.16 59436.16 0 01-9.195-22.115l-.462.191.462-.192a314423.02 314423.02 0 01-18.616-44.779l-.022-.052v-.001a93.373 93.373 0 01-.569-1.388c.151.376.324.791.517 1.255l.01.026h0l.022.052h0a59173.345 59173.345 0 0118.616 44.78h0l9.196 22.114c6.843 16.457 13.687 32.908 20.532 49.352.148.356.318.708.499 1.081l.1.208.003.005.053.107.34.684.49-.586c.527-.628 1.047-1.243 1.566-1.851l.002-.003c1.621-1.926 3.157-3.75 4.651-5.639v-.001c.45-.568.88-.924 1.325-1.126.44-.201.934-.269 1.539-.198h0c5.09.594 10.263 1.144 15.286 1.678l.756.08 2.67.283c4.273.454 8.82.927 13.843 1.441l.269-.947c-1.131-.548-2.26-1.017-3.354-1.471l-.004-.002-.04-.017-.007-.003-5.598-2.322h0l-.214-.088c-5.106-2.113-10.376-4.295-15.536-6.522-.735-.318-1.405-.47-2.039-.292-.636.178-1.115.656-1.55 1.305a16.855 16.855 0 01-1.562 1.897h0l-.01.01c-.25.276-.511.566-.772.868-.11-.123-.235-.254-.343-.368a8.152 8.152 0 01-.185-.197l-.006-.006c-.368-.391-.677-.72-.978-1.072v-.001c-.461-.536-.916-1.079-1.373-1.627l-.173-.207a117.807 117.807 0 00-2.85-3.324 16.216 16.216 0 01-2.904-4.789l-.004-.008a46714.098 46714.098 0 00-38.772-93.196v-.001a8.533 8.533 0 01-.182-.471c.044.12.092.242.143.366h0a49790.637 49790.637 0 0138.768 93.192 16.128 16.128 0 002.883 4.754l.003.004c.973 1.079 1.925 2.218 2.853 3.329h0c.511.611 1.024 1.224 1.545 1.834 0 0 0 0 0 0l.38-.325m-10.502 15.679l12.53-14.59m-12.53 14.59l.587-.701c.469-.559.932-1.112 1.39-1.656l-1.977 2.357zm10.503-15.679c.257.301.528.599.833.921l-.024.027.134.119h0l.24.213.355-.353-.02-.02.141-.157m-1.66-.75a206.1 206.1 0 01-1.541-1.83l1.542 1.83zm1.66.75l.361.346.007-.007m-.368-.339l.374.332a.04.04 0 00-.006.007m-.368-.339a16.418 16.418 0 001.517-1.835c1.088-1.615 2.312-1.975 4.096-1.205m-5.245 3.379a16.902 16.902 0 001.556-1.884h0l.008-.011c.508-.754 1.001-1.145 1.513-1.296.511-.15 1.137-.088 1.969.271m.199-.459l-.2.459m.2-.459l-.199.459s0 0 0 0m.199-.459c4.704 2.037 9.506 4.027 14.181 5.964l1.563.647c1.869.772 3.735 1.546 5.601 2.322l.045.018m-21.59-8.492l21.398 8.953.192-.461m0 0l.019.008c1.799.749 3.66 1.524 5.511 2.628l-.256.43h0c-1.821-1.086-3.654-1.85-5.461-2.602h.001l.186-.464zm-32.862.568c.963-1.218 1.96-1.669 3.314-1.51 5.087.593 10.26 1.143 15.283 1.677l.754.08 2.67.283c3.833.407 7.885.829 12.304 1.283.44.194.88.395 1.319.608l.218-.45.051-.498-1.458-.149c-.646-.283-1.288-.55-1.924-.814l-32.53-.51zM30.072 322.17c6.644-16.034 21.924-54.54 31.33-78.243l.45-1.134h.001l.033-.084c4.11-10.358 7.182-18.105 8.084-20.322l.003.001c-.847 2.074-3.972 9.952-8.16 20.507l-.055.14c-9.37 23.615-24.99 62.983-31.726 79.242l-.084.209c.039-.104.08-.209.124-.316zm-13.498-3.627c-.174.423-.332.805-.472 1.154.15-.378.322-.8.518-1.276 10.092-24.492 32.466-80.523 34.813-86.485h.001l-.147.374-.83 2.094a5214.52 5214.52 0 01-2.971 7.461c-2.49 6.238-5.894 14.752-9.613 24.025-7.439 18.547-16.137 40.132-21.292 52.635l.462.19-.462-.19-.007.018zM164.235 303.645a6.757 6.757 0 011.348 2.339 6.647 6.647 0 00-1.3-2.208 29837.81 29837.81 0 01-26.538-31.386h0l-4.588-5.425v-.001c-.254-.299-.5-.602-.777-.943l-.154-.189-.001-.001-.285-.356h.059l.167.206.001.001.195.24c.256.316.492.607.734.896l.001.001 4.588 5.425s0 0 0 0l2.507 2.967c7.909 9.362 16.027 18.971 24.034 28.424h0l.009.01zm-32.463-38.86l-.131.318-.001-.001.029-.07.001-.003c1.379-3.372 3.69-8.751 5.666-13.31.987-2.279 1.891-4.351 2.551-5.863l.789-1.803.221-.503.06-.137.017-.038a.084.084 0 01.006-.013h0l.002-.006h.001c.65.177 8.36 2.272 11.447 2.669 1.032.134 1.603.365 1.982.755.157.161.293.362.414.62a2.055 2.055 0 00-.346-.481c-.48-.49-1.166-.643-2.029-.756h-.001c-2.825-.365-9.412-2.121-11.095-2.577l-.415-.112-.173.393c-1.038 2.357-6.426 14.673-8.995 20.918zm54.106 87.983l.376-.208.032.083-.052.029c-3.113 1.744-6.228 3.261-9.539 4.874h-.001l-1.521.741v-.001s0 0 0 0l-.026-.095.529-.257 1.091-.531h0l.071-.035c3.117-1.519 6.087-2.966 9.04-4.6zM275.862 251.34h.001l18.655 21.961-.034.038-18.566-21.856c-.184-.217-.533-.769-1.043-1.671-.5-.886-1.136-2.07-1.889-3.517-1.507-2.891-3.478-6.815-5.773-11.459-4.583-9.271-10.455-21.397-16.497-33.876l-.032-.067c-5.769-11.918-11.639-24.041-16.276-33.43-2.318-4.694-4.328-8.708-5.865-11.671a136.723 136.723 0 00-1.931-3.62 23.287 23.287 0 00-.881-1.478l.019-.021c.185.289.42.685.707 1.193.501.886 1.137 2.071 1.89 3.517 1.506 2.891 3.477 6.815 5.773 11.458 4.591 9.286 10.474 21.437 16.527 33.938l.45-.218-.45.218.068.14c5.749 11.874 11.592 23.94 16.21 33.294 2.318 4.695 4.329 8.709 5.865 11.673a135.148 135.148 0 001.931 3.62c.502.897.895 1.544 1.141 1.834z" stroke="#fff"/></g></svg>